<svg xmlns:dc="http://purl.org/dc/elements/1.1/" xmlns:cc="http://creativecommons.org/ns#" xmlns:rdf="http://www.w3.org/1999/02/22-rdf-syntax-ns#" xmlns:svg="http://www.w3.org/2000/svg" xmlns="http://www.w3.org/2000/svg" xmlns:sodipodi="http://sodipodi.sourceforge.net/DTD/sodipodi-0.dtd" xmlns:inkscape="http://www.inkscape.org/namespaces/inkscape" version="1.1" id="Layer_1" viewBox="0 0 579.052 238.929" overflow="visible" enable-background="new 0 0 579.052 238.929" xml:space="preserve" sodipodi:version="0.32" inkscape:version="0.46" sodipodi:docname="remera2.svg" inkscape:output_extension="org.inkscape.output.svg.inkscape" viewport="0 0 400px 164px"><metadata id="metadata11646"><rdf:RDF><cc:Work rdf:about=""><dc:format>image/svg+xml</dc:format><dc:type rdf:resource="http://purl.org/dc/dcmitype/StillImage"/></cc:Work></rdf:RDF></metadata><defs id="defs11644"><inkscape:perspective sodipodi:type="inkscape:persp3d" inkscape:vp_x="0 : 119.4645 : 1" inkscape:vp_y="0 : 1000 : 0" inkscape:vp_z="579.052 : 119.4645 : 1" inkscape:persp3d-origin="289.526 : 79.643 : 1" id="perspective11648"/></defs><sodipodi:namedview inkscape:window-height="765" inkscape:window-width="1274" inkscape:pageshadow="2" inkscape:pageopacity="0.0" guidetolerance="10.0" gridtolerance="10.0" objecttolerance="10.0" borderopacity="1.0" bordercolor="#666666" pagecolor="#ffffff" id="base" showgrid="false" inkscape:zoom="3.2103297" inkscape:cx="422.52068" inkscape:cy="167.60497" inkscape:window-x="0" inkscape:window-y="0" inkscape:current-layer="Layer_1"/>
<polygon id="dorso_3_" fill="#FFFFFF" stroke="#120542" points="296.343,0.5 296.343,69.609 355.663,69.609 355.663,238.099   519.231,238.099 519.231,69.609 578.552,69.609 578.552,0.5 "/>
<polygon id="dorso_2_" points="296.343,0.5 296.343,69.609 355.663,69.609 355.663,238.099   519.231,238.099 519.231,69.609 578.552,69.609 578.552,0.5 " stroke="#120542" fill="#FFFFFF"/>
<path id="frente_1_" fill="#FFFFFF" stroke="#120542" d="M186.984,0.831c-6.019,8.675-24.063,14.975-45.383,14.975  c-21.321,0-39.365-6.299-45.377-14.975H0.5v69.112h59.317v168.486h163.564V69.943h59.321V0.831H186.984z"/>
<rect x="166.596" y="82.338" fill="#FFFFFF" width="34.797" height="0.209" id="rect11593"/>
<path fill-rule="evenodd" clip-rule="evenodd" fill="#120542" d="M169.081,87.424c7.402,1.626,19.987,1.361,28.992,1.407  c2.091,0.011,5.324-0.611,5.63,2.252c-21.385,1.006-44.732-0.427-65.865,0c-6.31,0.127-12.566-1.436-18.577-1.689  c-7.54-0.317-15.98,0.601-23.363,0.845c-2.97,0.098-6.233,0.735-8.444-0.845c0.518-2.597,3.996-1.747,6.192-1.97  c6.136-0.624,15.836-1.418,17.733-6.193c1.065-2.68,0.732-5.983,1.126-8.163c1.392-7.7,6.284-15.293,17.733-12.385  c4.967,1.262,9.208,5.263,14.918,5.911c3.213,0.365,7.213-0.78,10.133,0C164.598,69.083,162.858,82.103,169.081,87.424z" id="path11595"/>
<path fill-rule="evenodd" clip-rule="evenodd" fill="#120542" d="M485.748,86.682c-1.146,0.144-2.103,1.208-3.147,1.593  c-4.989,1.842-11.551,1.086-17.204,0.877c-3.148-0.117-8.151,0.068-10.647-1.736c-4.265-3.084-4.796-11.31-7.393-15.998  c-3.146-5.684-12.058-3.98-19.247-5.945c-5.632-1.54-8.447-5.856-14.167-6.351c-4.468-0.386-10.805,2.175-12.799,4.111  c-6.037,5.861-2.516,22.622-11.736,24.42c-3.748,0.73-6.662,0.925-9.898,1.385c-2.431,0.344-5.906-0.375-6.549,2.332  c2.402,0.384,4.828,0.489,7.297,0.788c4.252,0.517,9.69-0.665,14.955-0.947c9.168-0.49,17.763-0.864,24.771-0.362l0,0l1.572,0.044  c19.196-0.015,37.316,0.445,56.167,0.329c4.519-0.027,9.077,0.962,13.531-0.427C492.802,87.396,488.369,86.354,485.748,86.682z" id="path11597"/>
<g id="g11599">
	<path fill-rule="evenodd" clip-rule="evenodd" fill="#FFFFFF" d="M404.855,61.58c-0.339,0.21-0.113,0.747-0.125,0.974   c0.938-0.111,1.849,0.299,1.889,1.166c0.198,0.211,0.683,0.168,0.702,0.536c-0.026,0.212-0.231,0.218-0.272,0.413   c0.051,0.204,0.412,0.137,0.404,0.394c0.041,0.198-0.107,0.185-0.199,0.232c0.218,0.945-0.604,1.666-0.366,2.799   c-0.184-0.057-0.187,0.093-0.371,0.038c-0.106-0.348-0.383-0.546-0.689-0.72c-0.529,0.163-1.159-0.545-1.536-0.897   c-0.255,0.061-0.436,0.205-0.636,0.328c-0.387,1.111-1.024,1.938-1.709,2.711c0.089,0.715-0.373,0.801-0.396,1.387   c-0.851,0.322-1.017,1.423-2.063,1.522c-0.093,0.398-0.413,0.536-0.72,0.689c-0.03,0.469-0.062,0.937-0.091,1.405   c0.438,0.171,0.806,0.406,1.187,0.629c-0.318,0.258-0.63,0.146-1.006,0.365c-0.222,0.644-0.118,1.659-0.619,1.985   c0.067,0.075,0.212,0.083,0.363,0.085c0.078,0.142,0.133,0.304,0.086,0.557c0.344,0.14,0.537,0.413,0.754,0.663   c0.226,0.039,0.177-0.237,0.441-0.155c0.42,0.227,0.988,0.322,1.438,0.523c0.252,0.642,0.363,1.409,0.992,1.721   c0.029-0.229,0.266-0.222,0.447-0.278c0.256,0.646,0.936,0.084,1.524,0.16c0.174,0.059,0.139,0.3,0.411,0.272   c0.341-0.071,0.453-0.403,0.94-0.307c0.114,0.15,0.122,0.392,0.079,0.68c1.177,0.312,1.51,1.363,2.911,1.477   c-0.094,0.236,0.167,0.159,0.163,0.317c0.519-0.02,1.013-0.071,1.481-0.148c0.389,0.279,0.586,0.883,1.306,0.697   c0.084,0.673,1.167,0.388,1.349,0.027c0.574,0.285,1.385-0.383,1.97-0.118c0.102-0.033-0.175-0.29,0.086-0.363   c0.597,0.152,0.997,0.278,1.645,0.168c-0.006,0.103-0.013,0.204-0.019,0.306c0.605,0.082,0.834,0.496,1.5,0.527   c0.004,0.092-0.037,0.224,0.045,0.249c0.37-0.444,0.917-0.079,1.421-0.154c0.053,0.453,0.66,0.42,0.612,0.961   c1.317,0.338,2.444,0.133,3.625-0.073c0.176,0.269,0.201,0.669,0.498,0.831c0.302-0.147,0.778,0.046,1.035,0.128   c-0.006,0.101-0.013,0.204-0.02,0.305c0.423-0.068,0.746-0.136,0.97,0.185c0.146,0.034-0.016-0.28,0.195-0.171   c0.801,0.557,2.192,0.418,3.234,0.271c0.061,0.138,0.142,0.261,0.091,0.497c0.485-0.004,0.93,0.102,1.463,0.156   c0.179-0.081,0.094-0.462,0.28-0.534c0.381-0.086,0.281,0.251,0.469,0.336c0.11-0.158,0.258-0.274,0.451-0.338   c0.164,0.244,0.318,0.059,0.493-0.029c0.245,0.112,0.378,0.321,0.778,0.296c-0.021-0.352,0.1-0.542,0.116-0.852   c0.331-0.104,0.509,0.081,0.787,0.173c-0.045,0.452-0.156,0.87-0.012,1.104c0.073-0.617,0.422-0.921,0.985-0.979   c0.231,0.123,0.39,0.31,0.388,0.639c0.477,0.164,0.829-0.416,1.156,0.137c0.292-0.127,0.662-0.165,1.112-0.113   c0.048,0.112,0.161,0.167,0.098,0.375c0.38,0.104,0.496-0.093,0.804-0.072c0.098,0.241,0.44,0.267,0.389,0.64   c0.453-0.035,0.561,0.235,0.899,0.304c0.196-0.215,0.533-0.268,0.937-0.247c0.079,0.123,0.146,0.256,0.156,0.439   c0.297,0.034,0.469-0.078,0.798-0.009c0.175,0.434,0.394,0.896,0.927,0.857c-0.01,0.143-0.02,0.285-0.029,0.428   c0.232-0.05,0.165,0.163,0.359,0.146c0.174-0.043,0.311-0.126,0.501-0.151c0.576,0.402,1.185-0.25,2.04-0.236   c-0.059-0.209-0.475-0.488-0.141-0.684c-0.328-0.01-0.074-0.402,0.032-0.489c0.271,0.105,0.826-0.186,0.965,0.247   c0.189-0.436,0.641,0.029,1.106,0.01c0.177-0.279,0.344-0.569,0.771-0.563c0.017-0.803,0.188-1.739,0.097-2.448   c0.355-0.537,0.707-1.427,0.808-2.034c-0.314,0.364-0.888,0.433-1.33,0.65c-0.075,0.336-0.053,0.648-0.118,0.851   c-0.324-0.189-0.104-0.595-0.131-0.806c-0.295-0.121-0.684,0.17-1.112,0.112c-0.068,0.232,0.26,0.116,0.159,0.378   c-0.539-0.583-1.867-0.473-1.929-1.475c-0.063,0.103-0.127,0.205-0.317,0.163c-0.102,0.229,0.131,0.456-0.036,0.55   c-0.204-0.088-0.058-0.486-0.139-0.683c0.123-0.1,0.38-0.049,0.386-0.282c-0.003-0.689-0.844-0.642-1.354-0.886   c-0.066,0.111,0.17,0.216-0.016,0.245c-0.683-0.193-0.981-0.702-1.585-1.084c-0.175-0.832-0.848-1.319-1.299-1.741   c-0.191,0.102,0.049,0.443-0.094,0.485c-0.187-0.104-0.202-0.361-0.269-0.569c-0.375,0.022-0.549-0.134-0.913-0.121   c-0.309,0.298-0.285,0.767-0.397,1.386c-0.713,0.277-0.971,1.079-1.843,0.984c-0.706-0.076-1.168-0.714-1.709-1.093   c-0.063-0.443-0.387-0.659-0.483-1.074c0.015-0.188,0.313-0.654,0.105-0.667c-0.102-0.194-0.108,0.263-0.317,0.163   c-0.501-0.527-1.133-0.932-1.984-0.62c-0.517-0.373-1.06-0.721-1.196-1.427c-0.008,0.449-0.326,0.547-0.426,0.893   c-0.379-0.03-0.341-0.426-0.506-0.646c0.034-0.172,0.068-0.373,0.079-0.364c0.106-0.349,0.428-0.104,0.632-0.266   c0-0.25-0.088-0.422-0.144-0.623c-0.475-0.038-0.98-0.11-1.177,0.169c0.164,0.028,0.094,0.264,0.225,0.321   c0.016-0.134,0.26-0.01,0.37-0.037c0.026,0.043-0.131,0.509-0.21,0.773c-0.042-0.04-0.091-0.075-0.143-0.06   c-0.261,1.218-1.475,0.311-2.499,0.697c-0.133-0.172-0.367-0.254-0.396-0.517c0.826-0.574,1.432-2.79,0.282-3.417   c-0.114,0.271-0.423,0.131-0.695,0.322c-0.47-0.201-0.769-0.553-1.37-0.641c-0.223,0.445-0.936,0.285-1.307,0.284   c0.061-0.281,0.208-0.463,0.407-0.588c0.192-2.417-0.182-4.336-1.035-5.834c-1.117-0.198-1.429-1.692-2.864-1.229   c-0.008,0.53-0.396,0.85-0.851,0.804c-0.261-0.026-0.452-0.415-0.708-0.415c-0.733,0.002-1.03,1.527-1.521,1.681   c-0.313,0.098-0.37-0.154-0.663-0.166c-0.244-0.01-0.484,0.202-0.75,0.197c-0.355-0.006-0.597-0.271-1.023-0.312   c-0.01-0.143,0.025-0.234,0.082-0.302c-0.99-0.05-1.592,0.108-2.185-0.387c-0.527,0.212-1.032-0.585-1.764-0.237   c-0.332-0.304-0.592-0.67-1.048-0.866c-0.076-0.682-0.916-0.694-1.082-1.297c-0.556-0.357-1.208-0.63-1.322-1.374   c-0.514-0.106-0.39-0.772-0.862-0.915c0.146-0.481-0.39-0.842-0.466-1.319C406.179,61.47,405.517,61.462,404.855,61.58z" id="path11601"/>
</g>
<g id="g11603">
	<g id="g11605">
		<path fill-rule="evenodd" clip-rule="evenodd" fill="#FFFFFF" d="M444.063,78.447c-0.056,0.149-0.199,0.272-0.177,0.445    c0.198-0.153,0.61-0.242,0.67-0.436C444.371,78.526,444.257,78.356,444.063,78.447z M446.999,73.985    c-0.413-0.188-0.81-0.64-1.002-1.197c-0.212,0.17-0.457-0.052-0.543,0.157c0.79,0.661,0.527,1.691,0.222,2.321    c0.249,0.855-0.39,1.451-0.552,2.185c-0.224,0.1-0.203,0.272-0.426,0.372c0.133,0.205,0.22,0.395,0.158,0.542    c1.002-0.593,2.221-1.121,3.086-1.754C447.455,75.899,446.982,74.836,446.999,73.985z M445.62,72.227    c-0.029-0.069-0.053-0.136,0.049-0.167c-0.37-0.225-0.538-1.137-1.07-0.81C444.932,71.601,445.161,72.304,445.62,72.227z" id="path11607"/>
	</g>
</g>
<g id="g11609">
	<path fill-rule="evenodd" clip-rule="evenodd" fill="#FFFFFF" d="M439.137,73.402C439.012,73.269,439.249,73.192,439.137,73.402   L439.137,73.402z" id="path11611"/>
	<path fill-rule="evenodd" clip-rule="evenodd" fill="#FFFFFF" d="M439.61,73.026C439.477,73.151,439.4,72.912,439.61,73.026   L439.61,73.026z" id="path11613"/>
	<path fill-rule="evenodd" clip-rule="evenodd" fill="#FFFFFF" d="M441.077,72.44c-0.131-0.116-0.172,0.029-0.119,0.094   c0.462,1.208-0.424,3.234-1.922,2.686c-0.033-0.04-0.064-0.079-0.095-0.118c0.219-0.235,0.438-0.898,0.779-0.233   c0.69-0.527,0.146-0.494-0.232-0.78c0.119-0.094,0.236-0.189,0.354-0.283c-0.164-0.129-0.348-0.092-0.494-0.379   c0.276-0.003,0.391-0.101,0.262-0.4c0.192-0.121,0.403-0.389,0.567-0.257c0.07-0.1,0.06-0.209-0.07-0.331   c0.372-0.422,0.658-0.105,1.018-0.422C441.206,72.168,441.14,72.305,441.077,72.44z" id="path11615"/>
	<path fill-rule="evenodd" clip-rule="evenodd" fill="#FFFFFF" d="M441.505,71.521C441.372,71.647,441.295,71.407,441.505,71.521   L441.505,71.521z" id="path11617"/>
	<path fill-rule="evenodd" clip-rule="evenodd" fill="#FFFFFF" d="M439.137,73.402C439.706,73.855,438.479,73.714,439.137,73.402   L439.137,73.402z" id="path11619"/>
	<path fill-rule="evenodd" clip-rule="evenodd" fill="#FFFFFF" d="M441.505,71.521c0.588-0.44,1.146-0.606,1.703-0.773   c0.096,0.119,0.017,0.217,0.071,0.331c-0.325,0.452-0.056,0.377,0.02,0.756c-0.606,0.39-0.014,0.252-0.072,0.637   c-0.103,0.442-1.251,0.5-0.428,0.92c-0.753-0.033-0.366,0.716-0.949,0.753c-0.07,0.099-0.059,0.208,0.07,0.331   c-0.628-0.129-0.349-0.826-0.634-1.042c0.146-0.27,0.276-0.542,0.521-0.801c-0.188-0.237-0.375-0.474-0.564-0.71   C441.367,71.792,441.597,71.675,441.505,71.521z" id="path11621"/>
	<path fill-rule="evenodd" clip-rule="evenodd" fill="#FFFFFF" d="M440.958,72.535c-0.053-0.065-0.012-0.21,0.119-0.094   C441.037,72.472,440.998,72.503,440.958,72.535z" id="path11623"/>
	<path fill-rule="evenodd" clip-rule="evenodd" fill="#FFFFFF" d="M440.958,72.535c0.04-0.031,0.079-0.063,0.119-0.094   C441.129,72.506,441.088,72.651,440.958,72.535z" id="path11625"/>
	<path fill-rule="evenodd" clip-rule="evenodd" fill="#FFFFFF" d="M443.279,71.079C443.73,70.509,443.589,71.736,443.279,71.079   L443.279,71.079z" id="path11627"/>
	<path fill-rule="evenodd" clip-rule="evenodd" fill="#FFFFFF" d="M438.941,75.103C438.567,75.36,438.664,74.521,438.941,75.103   L438.941,75.103z" id="path11629"/>
</g>
<path d="M495.424,82.252c0.838-0.62,4.495-0.799,6.14-3.466  c1.9-3.083,1.697-8.731,0.793-10.002c-2.152-3.023-8.096-2.972-9.013-3.07c-5.52-0.592-11.079,1.333-12.836,2.459  c-3.797,2.43-2.334,7.325-1.98,8.028c1.136,2.252,5.273,5.443,8.825,5.986c1.183,0.181,3.128-0.114,4.172,0.36  c1.099,0.5,0.286,1.59,0.532,2.379C492.057,84.926,493.617,83.589,495.424,82.252z" id="path11631" stroke-width="0.4086" stroke="#120542" fill="#FFFFFF"/>
<circle fill="#FFFFFF" cx="489.575" cy="88.581" r="0.438" id="circle11633"/>
<path fill="#FFFFFF" d="M491.403,90.194c-0.838,0.184-1.644-0.016-2.42-0.241c-0.015,0.244,1.157,0.668,1.457,0.642  c0.262-0.023,0.532-0.019,0.793-0.052c0.118-0.015,0.574-0.302,0.289-0.37" id="path11635"/>
<text font-size="9.0654" id="text11637" style="font-size:8.03352547px;font-style:normal;font-variant:normal;font-weight:bold;font-stretch:normal;text-align:start;line-height:125%;writing-mode:lr-tb;text-anchor:start;fill:#120542;font-family:DejaVu Sans;-inkscape-font-specification:DejaVu Sans Bold" sodipodi:linespacing="125%" x="480.01788" y="75.066544">PyAr</text>

<text transform="scale(1.0130058,0.9871612)" font-size="3.3777" id="text11639" style="font-size:2.95515728px;font-style:normal;font-variant:normal;font-weight:normal;font-stretch:normal;text-align:start;line-height:125%;writing-mode:lr-tb;text-anchor:start;fill:#120542;font-family:DejaVu Sans;-inkscape-font-specification:DejaVu Sans" sodipodi:linespacing="125%" x="485.61465" y="78.967911">(berp)</text>

<text font-size="4.7851" id="text11641" style="font-size:4.5px;font-style:normal;font-variant:normal;font-weight:normal;font-stretch:normal;text-align:start;line-height:125%;writing-mode:lr-tb;text-anchor:start;fill:#120542;font-family:DejaVu Sans;-inkscape-font-specification:DejaVu Sans" sodipodi:linespacing="125%" x="385.3223" y="96.215302">Grupo de usuarios de Python de Argentina</text>

</svg>