<svg xmlns:dc="http://purl.org/dc/elements/1.1/" xmlns:cc="http://creativecommons.org/ns#" xmlns:rdf="http://www.w3.org/1999/02/22-rdf-syntax-ns#" xmlns:svg="http://www.w3.org/2000/svg" xmlns="http://www.w3.org/2000/svg" xmlns:sodipodi="http://sodipodi.sourceforge.net/DTD/sodipodi-0.dtd" xmlns:inkscape="http://www.inkscape.org/namespaces/inkscape" id="svg2" version="1.1" inkscape:version="0.47pre4 r22446" sodipodi:docname="logov2.jpg" viewport="0 0 318px 400px">
  <metadata id="metadata8">
    <rdf:RDF>
      <cc:Work rdf:about="">
        <dc:format>image/svg+xml</dc:format>
        <dc:type rdf:resource="http://purl.org/dc/dcmitype/StillImage"/>
        <dc:title/>
      </cc:Work>
    </rdf:RDF>
  </metadata>
  <defs id="defs6">
    <inkscape:perspective sodipodi:type="inkscape:persp3d" inkscape:vp_x="0 : 0.5 : 1" inkscape:vp_y="0 : 1000 : 0" inkscape:vp_z="1 : 0.5 : 1" inkscape:persp3d-origin="0.5 : 0.33333333 : 1" id="perspective10"/>
  </defs>
  <sodipodi:namedview pagecolor="#ffffff" bordercolor="#666666" borderopacity="1" objecttolerance="10" gridtolerance="10" guidetolerance="10" inkscape:pageopacity="0" inkscape:pageshadow="2" inkscape:window-width="1600" inkscape:window-height="826" id="namedview4" showgrid="false" inkscape:zoom="0.46952305" inkscape:cx="460.5" inkscape:cy="569.18644" inkscape:window-x="0" inkscape:window-y="24" inkscape:window-maximized="1" inkscape:current-layer="svg2"/>
  <path style="fill:#000000" d="m 462.7519,1125.984 c -39.17363,0.9528 -51.41465,-64.2803 -80.7519,-17.1221 -38.35614,19.1632 -69.49305,-21.1354 -89.47488,-34.6546 -20.1557,40.2751 -81.73144,40.1042 -104.14149,2.6462 -23.94975,34.4037 -91.924308,10.3195 -79.29253,-34.2972 -42.223509,23.0251 -89.574426,-19.7089 -86.203282,-63.62528 -5.499571,-52.2317 48.559549,-78.33185 77.182912,-113.26904 23.89181,-28.87987 60.62038,-55.51238 80.53721,-82.56041 C 155.99923,751.06319 148.61196,708.79625 131.46561,675.2629 87.444378,617.31125 64.370932,545.02661 62.093754,472.71543 66.690107,402.74069 98.588174,334.16409 150.97883,287.72695 146.01234,233.92656 192.60215,206.107 235.5,222.17913 c 30.63906,-19.15295 55.18677,-41.52737 88.74317,-42.18044 37.11252,-4.41002 27.78942,-70.19807 58.69076,-62.28864 6.34321,20.25338 -20.21676,64.27365 25.44866,45.07906 45.79477,25.57333 -46.61188,13.59067 -54.17934,42.04322 -22.60998,12.10912 -17.41049,55.70334 5.26761,21.97442 41.35177,9.58122 -33.89956,48.24097 -27.33973,78.34704 -1.72792,25.69983 29.56831,58.28856 41.33992,71.48993 20.07077,-32.95921 5.38377,-89.73038 24.80798,-129.14372 15.03505,-34.07952 40.98891,-81.41223 77.02502,-89.58399 -0.22463,31.60416 -57.54102,68.28258 -60.82961,112.58399 -22.86434,39.0442 11.06272,82.11232 49.7591,84.67675 38.56691,-0.15455 83.13482,5.76483 70.85234,-48.28788 8.21901,-47.28784 13.74424,-95.52658 33.87877,-139.56434 12.06895,-42.28629 32.59089,-84.050464 60.62224,-117.983617 4.02255,-21.137262 53.44398,-47.3972417 35.82701,-11.712769 -28.71776,36.884093 -68.8988,76.503306 -64.9353,126.666406 30.42188,22.95373 69.1554,46.23006 74.33836,88.61795 24.31963,45.72484 -40.3274,91.94397 -21.84372,127.99035 53.21483,-11.83409 74.46463,-76.65132 78.60345,-125.87121 -15.50133,-33.83195 40.05835,-57.42097 23.04952,-14.72038 7.20812,45.78528 28.19659,105.92357 -17.30279,140.55516 -45.13387,24.81561 29.62389,56.8736 28.38543,94.98871 23.47,65.30264 17.45603,139.21731 -3.70885,204.03034 -16.6088,18.47634 -38.57055,57.3804 -0.3317,29.44736 51.2886,-13.97922 -0.73074,58.07215 -18.49485,72.19032 -16.14793,31.25144 43.32981,62.85794 55.30809,96.41404 16.77947,45.11112 81.80256,67.89847 61.30102,123.61951 -12.0976,35.8702 -60.96882,56.4118 -89.88942,36.0729 -26.85676,30.7678 -72.15245,-3.7469 -90.19255,35.2221 -35.23692,7.6242 -64.2922,-12.4141 -87.31469,25.2702 -32.57162,15.2642 -66.46714,-17.4838 -85.09603,22.6764 -13.7156,6.6642 -29.71582,6.1193 -44.53797,5.1857 z m 28.93693,-20.675 c 30.73423,-9.3085 18.77927,-68.5459 5.02625,-17.5907 -10.05845,17.7772 -62.33024,14.5599 -19.80297,19.1461 l 8.41919,-0.3125 6.35753,-1.2429 0,0 z m -121.92134,-14.2645 c 34.6124,0.1385 18.81008,-72.7897 14.67169,-21.0213 -0.007,19.1561 -55.86576,25.5867 -14.67169,21.0213 z m 107.26226,-1.5599 c 5.52793,-11.5295 -39.82627,9.4628 0,0 l 0,0 z M 342,1090.4183 c -38.29273,-30.3778 72.16231,-50.2481 10.55682,-41.8931 -14.79311,6.8596 -40.49642,36.0884 -10.55682,41.8931 z m -95.89922,-3.6014 c 23.38614,-6.8418 37.09443,-41.9256 10.17915,-11.3211 -16.83231,28.5004 -69.7137,-26.4907 -34.16738,8.5693 7.71555,1.0541 16.19036,5.5259 23.98823,2.7518 z m 109.76725,-3.7142 c -4.38221,-18.3606 -17.29632,4.7322 0,0 z m 218.39302,-0.6819 c 10.38326,-10.4175 -55.16211,-12.6028 -16.09255,0.9915 l 7.7783,-0.045 8.31425,-0.9461 0,0 z m -96.06746,-7.0209 c 12.97751,-11.155 -32.80016,4.3697 -33.17994,-8.6499 2.81827,18.0505 21.63447,11.8926 33.17994,8.6499 z m -42.92569,-7.382 c 3.51749,-28.5942 -10.71879,21.7932 0,0 z m -267.22741,1.794 c 39.73958,-35.5075 -19.6267,-89.04544 -35.55184,-28.7725 -15.25591,68.1835 17.77631,-68.54425 44.12927,-10.1245 8.49153,10.7576 -19.94607,42.8554 -8.57743,38.897 z m 57.95372,0.9381 c 5.57314,-27.9185 -14.50881,-15.5209 0,0 z m -72.27541,-4.8332 c -10.53905,-29.2689 -26.18137,9.22 0,0 z M 379,1062.5776 c -7.77901,-18.8541 -4.81684,15.568 0,0 z m 216.58095,0.1676 c 16.30274,-51.8554 -16.59239,12.8997 0,0 z m -336.11575,-0.8488 c 14.52599,-29.0869 -53.83098,-17.1716 -6.71855,-7.8964 5.10055,2.2929 -2.26403,17.347 6.71855,7.8964 z m 237.88414,-2.4284 c -4.52139,-5.6053 0.36195,6.4882 0,0 z M 556.33442,1054 c 11.49938,-14.289 37.32414,-26.0395 3.66558,-15.0816 -12.08746,3.2765 -10.81586,29.6356 -3.66558,15.0816 z m 27.40392,2.1951 c 13.59114,-27.222 -28.82323,12.2073 -2.83937,2.2429 l 2.83937,-2.2429 0,0 z M 658,1057.4213 c 44.25118,9.0891 17.62176,-75.02268 14.31695,-45.1836 44.77416,27.2391 -54.81096,50.8382 -14.31695,45.1836 z M 469.84227,1054.86 c 7.38693,-6.8745 -14.19095,5.2096 0,0 z M 493,1054.1224 c -8.53911,-13.1689 -8.14504,4.1233 0,0 z m -335.17025,-3.9605 c -1.30173,-6.4926 -6.11721,8.642 0,0 z m 307.14222,-4.1234 c 1.44617,-5.3628 -9.67053,2.8279 0,0 z M 657.5,1045.143 c 41.84203,-3.772 -12.21701,-46.41425 -8.25,-24.1265 44.22104,12.4706 -39.0129,30.6625 8.25,24.1265 z m -50.49197,-4.6143 c -7.39525,-15.8761 3.53306,17.095 0,0 z m -312.72001,-5.2043 c 16.56133,-33.7251 53.01546,-74.92811 46.30396,-108.7321 -24.05154,31.80379 -54.22469,60.8876 -61.22001,100.3014 11.30068,-7.7345 39.66287,-76.75018 40.32087,-48.57527 -3.49596,15.96592 -55.36396,70.96457 -25.40482,57.00597 z m 111.80817,3.9256 c 2.24632,-26.9588 33.46711,-79.76917 11.13954,-95.60151 -24.46752,-4.65569 10.87253,16.14976 -13.23586,20.8518 7.27796,21.1818 -30.22987,76.49281 2.09632,74.74971 z m 107.52236,-3 c -0.70467,-20.2909 -7.09131,-99.17263 -11.95089,-40.30601 9.94269,17.17291 2.83522,49.40031 -10.91019,16.29751 -10.24892,-24.50043 17.70732,-57.08992 14.24253,-68.57636 -18.85706,17.5944 -26.08069,65.49736 -17.75,86.54356 5.50521,-0.7622 29.36514,18.0301 26.36855,6.0413 z m -177.0034,0.1297 c 13.08191,-26.4509 -20.38655,7.4171 0,0 z m 304.94372,1.195 c 0.75709,-10.6275 -14.55688,3.6828 0,0 z M 167,1035.6994 c -6.14964,-22.1462 -9.91131,7.7384 0,0 z m 484,-3.4186 c -7.21928,-3.3095 -7.10568,8.3599 0,0 z m -218.43925,1.0874 c 24.34969,-11.6668 13.71145,-104.03096 5.81239,-42.83923 1.67066,8.94472 -17.21451,45.21853 -5.81239,42.83923 z m 302.70056,-0.291 c 51.19436,-2.6119 2.3603,-67.64301 -6.69159,-41.662 58.09878,8.9043 3.60221,37.467 6.69159,41.662 z m -484.70753,-0.9902 c -13.70575,-6.5958 -12.81682,4.1104 0,0 z m -160.461117,-2.184 c 36.048447,-10.9857 1.73106,-80.88036 -5.004763,-69.21239 49.96545,38.9516 -31.667649,99.24629 -40.580595,30.45374 -15.573912,-25.97524 49.312726,-58.54812 -0.234694,-37.7074 -12.995407,31.88033 2.663385,86.88915 45.820052,76.46605 z m 7.368257,-18.3599 c 10.50569,-7.4521 -6.453355,6.5131 0,0 z m 284.91091,18.2069 c 8.47616,-24.0771 23.8851,-72.14162 14.83112,-87.74739 -30.5411,-5.71284 -36.43999,52.23452 -52.70562,74.51799 14.17826,32.0038 12.88573,-48.4681 19.51928,-6.3678 1.51823,47.2946 8.91356,-42.46267 19.81449,-54.13573 22.75277,-28.36261 -9.18968,40.00577 -7.09987,54.12633 1.44528,2.4417 -4.98935,26.4762 5.6406,19.6066 z m 429.25605,-1.3346 c 34.60332,-11.9932 46.38732,-70.67962 8.46838,-79.73734 -31.36997,7.07837 49.16306,27.12821 8.40374,55.15954 -7.93333,35.1129 -65.3905,-0.2187 -23.02611,25.9774 l 6.15399,-1.3996 0,0 z m -88.73081,-2.02 c -1.99345,-21.3145 -14.71908,5.3895 0,0 z M 452.075,1024.725 c -2.50804,-2.9334 -2.33526,3.6998 0,0 z m 20.35174,-0.975 c 13.89645,-32.31334 8.91617,-111.94604 -2.67914,-35.12182 6.46067,8.01927 -19.21113,47.85682 2.67914,35.12182 z m 63.91519,1 c 26.78658,-20.7274 -19.10464,-115.33542 -6.73162,-44.10427 2.15551,13.51763 1.59985,36.16087 6.73162,44.10427 z m 17.29004,-4.8316 c 9.93783,-13.7945 -13.63404,6.153 0,0 z M 269,1016.882 c 15.4794,-18.45603 -9.21183,-3.9053 0,0 z m 191.36324,-13.1366 c 2.12294,-25.21943 12.58514,-86.76334 -6.05505,-36.95537 2.64483,5.89383 -2.80117,76.28527 6.05505,36.95537 z m -382.152195,10.3642 c 14.956111,-7.6259 -44.984355,-24.76899 -11.395443,-1.8689 l 6.425236,2.2524 4.970207,-0.3835 z M 600.33244,1010.75 c -13.15754,-65.51374 -20.70084,7.449 0,0 z m -361.66385,-4.8131 C 271.84812,983.12354 305.75185,944.55237 309.7423,909 c -26.66349,12.50565 -28.96756,64.96225 -59.28787,84.49294 -12.482,-13.80361 -42.7043,33.55566 -11.78584,12.44396 z m 339.13859,5.9156 c -9.02064,-9.0364 18.73539,-44.31275 2.47487,-47.39305 -4.25967,11.63427 -20.75382,46.52045 -2.47487,47.39305 z m -379.08023,-2.586 c 30.39742,-36.93249 57.42389,-76.48353 82.71837,-116.99255 -34.18644,-57.6901 -66.55645,20.37187 -95.60995,43.54464 -14.31453,11.12071 -61.02849,66.84011 -25.6818,46.68143 20.85306,-24.86266 48.115,-55.19133 65.73502,-78.02925 5.19871,12.43778 49.16175,-53.81375 25.81808,-11.81786 -16.65124,22.84284 -19.16519,30.8047 5.23175,6.84633 9.43235,10.52942 -20.39216,32.43173 -23.51605,48.94352 -5.71796,-15.21214 -37.0244,25.1505 -17.67237,-6.35656 24.39177,-20.24776 5.47212,-37.48953 -3.31129,-1.70452 -17.96549,19.6207 -7.00385,24.03886 -20.52172,48.38143 13.49694,-13.92697 28.96567,-8.9182 7.44261,13.18149 -2.08093,-0.088 -9.82701,16.3324 -0.63265,7.3219 z m 58.38949,-0.5107 c 12.33595,-30.97778 24.18855,10.3995 26.85911,-25.4808 -9.35808,-6.31255 -46.40831,35.9809 -26.85911,25.4808 z m 370.6955,-0.7153 c -0.33376,-33.63259 -21.86449,3.3895 0,0 z m 171.64971,-1.3888 c 0.14193,-12.65662 -25.6187,0.4003 0,0 z M 816,1002.7362 c -3.74201,0.6305 -6.7958,11.6644 0,0 z m -253.31689,1.0763 c -1.92502,0.4337 1.43252,4.3834 0,0 z m -377.50042,-4.32852 c -2.93941,-21.18464 11.58179,-47.78676 -14.18183,-19.48566 -7.18812,8.47475 8.67232,17.44416 14.18183,19.48566 z M 560.5,986.85129 c 4.47344,-16.38096 19.11187,-33.38599 19.75149,-32.68754 -13.85153,-67.76674 -27.59453,19.26262 -28.31368,44.55261 -0.3625,8.59834 9.10378,-22.10421 8.56219,-11.86507 z m -480.586525,9.31038 c -5.266269,-40.48705 -29.836092,7.21693 0,0 z m 561.432155,-0.33783 c 1.76268,-11.08265 -4.45968,-58.85951 9.816,-18.1416 32.08689,34.69806 4.77296,-41.77497 -8.28401,-55.7722 -3.98202,-25.49124 -35.04756,-41.84866 -18.23392,-3.96801 17.90467,14.48034 30.57279,58.42992 5.12008,17.59011 -8.5268,-20.64532 -33.70783,-51.33073 -23.16374,-9.80152 21.37918,17.74404 22.52596,65.54316 34.74559,70.09322 z M 823,995 c -2.55494,-3.58745 -2.55494,3.58745 0,0 z m -196.00681,-5.75 c 1.90605,-25.47397 -16.52671,-39.11078 -9.48637,-7.34524 3.05511,-0.23072 5.35017,10.10143 9.48637,7.34524 z M 53.24588,977.48909 c -6.679018,-14.05099 0.616792,27.66731 0,0 z m 34.570084,1.98479 c -4.314157,-33.57987 -49.220207,-7.20287 -12.978693,-8.43811 6.222895,-0.4032 19.578195,27.78333 12.978693,8.43811 z m 731.355296,4.87113 c 3.52478,-20.79326 -21.35437,0.98404 0,0 z m -465.17623,-5.9309 c 12.89424,-15.35409 19.23422,-46.59153 2.72247,-11.92822 -5.75145,9.01059 -11.90397,28.16057 -2.72247,11.92822 z m -98.49079,-8.44774 c 19.55905,-13.61248 51.17415,-88.93905 18.20558,-33.24508 -4.68675,9.36627 -43.94039,63.81861 -18.20558,33.24508 z M 695,979 c 7.49126,-9.24251 -15.57861,-56.72651 3.88399,-19 24.24693,40.4994 27.24828,-11.88692 -2.22854,-22.30197 C 674.95928,881.11103 672.31774,978.9974 695,979 l 0,0 z m 96.45245,1.07694 c 40.16949,-17.09421 -6.20336,-15.49024 0,0 z M 129.17135,969.82396 C 164.85108,930.53014 203.01961,892.54509 234,849.61099 c -19.70753,-25.91207 -22.911,50.58127 -50.52163,54.99767 -20.37153,21.11325 -9.23132,-24.65719 -30.09024,5.49102 10.52374,13.63866 -41.16446,47.91127 -29.98997,65.49916 l 5.77315,-5.77488 4e-5,0 z M 734,969.4456 c 14.45952,-9.0453 -63.64659,-85.0358 -59.71282,-77.66236 17.72425,21.98247 41.52474,64.65745 59.71282,77.66236 z m -436.56407,-1.3748 c 22.57526,-10.51984 41.83858,-75.7984 10.26429,-32.89767 1.58533,7.23456 -17.20339,37.47871 -10.26429,32.89767 z m 318.09653,-9.6683 c -5.6398,-19.41447 -36.32773,-72.52615 -19.55144,-20.64077 6.79278,10.72986 6.41602,46.61665 19.55144,20.64077 z m -65.05616,3.70541 c 4.60887,-24.46975 1.60262,-47.28523 -13.4763,-19.31237 1.49042,2.48903 10.46565,28.56669 13.4763,19.31237 z m 226.08647,-2.688 c -7.13155,-13.00732 0.72673,14.28054 0,0 z m -660.27492,1.81451 c 12.14295,-21.01815 31.45484,-59.50375 -3.50643,-26.24164 -17.771691,7.16775 -7.81544,25.60967 3.50643,26.24164 z M 762.83368,956 c -9.08827,-18.63322 -42.31172,-40.07205 -11.91416,-8 2.19586,1.05666 17.25285,23.92736 11.91416,8 z m -309.79851,-7.54238 c 0.92986,-10.72683 -8.03957,7.83114 0,0 z m 34.94952,-2.6486 c -2.78002,-8.4891 -2.09138,11.27496 0,0 z m 303.87027,-3.3263 c 10.1244,-4.62748 -10.40763,-48.89167 7.14504,-17.98831 32.29509,37.69348 -34.96859,-79.63654 -20.58535,-15.51477 0.81566,7.47916 1.11347,39.45671 13.44031,33.50308 z m -16.76524,-9.11 c -9.78245,-22.11811 3.86011,-88.73188 -17.20876,-39.6926 -7.39196,-14.11655 -19.65645,-53.29248 -9.91412,-12.96638 5.41434,14.72291 28.85947,53.84515 1.15243,24.14109 -8.55516,-20.92211 -27.91817,-87.14895 -43.79981,-77.57357 -1.43059,14.19737 45.25044,72.92315 16.69777,59.57438 -1.22284,-26.59551 -28.52218,-45.04914 -8.5229,-7.65609 4.12987,17.04042 57.6537,86.67171 61.59539,54.17317 z M 89.659355,933.56995 C 86.315405,917.22449 117.91327,873.89223 89.418507,910.5 c -9.458511,7.48328 -22.268121,36.15142 0.240848,23.06995 z m 585.178025,0.88576 c 5.55599,-26.63342 -45.07856,-63.51567 -15.1685,-21.36502 3.52073,1.44964 11.79729,32.13134 15.1685,21.36502 z m -571.58077,-3.15154 c 40.1111,-27.08264 86.6945,-49.79559 99.38878,-100.99709 12.06178,-23.57263 -26.74406,30.7282 -31.5985,40.13674 -19.27544,8.05941 -48.59006,48.00096 -58.60833,40.47992 7.09153,-23.62148 61.51723,-37.85855 56.06144,-51.8784 -31.73388,6.58998 -76.366048,47.96737 -65.24339,72.25883 z M 67.8125,928.0625 c -3.305897,-3.64622 -3.135484,5.58305 0,0 z M 478.5,927.60731 C 560.75473,917.42299 635.64371,873.49451 690.4017,812 c 14.62695,-19.58311 68.43187,-68.50468 54.56458,-73.4404 -37.7005,14.7691 -60.30536,47.47504 -93.43434,69.64779 -69.4686,36.00837 -146.72078,59.20139 -224.79368,63.66614 -100.90711,-5.20759 -187.87557,-68.97677 -252.67774,-142.40816 3.32489,25.53613 39.43039,76.15552 70.00062,99.82229 35.32275,24.24714 56.20881,65.12412 98.0971,80.62073 42.53165,19.35268 90.49515,19.82857 136.34176,17.69892 z M 71.806872,920.47354 c -2.830076,1.93311 -1.187829,4.34969 0,0 z M 714.789,897.25 c -10.58113,-21.17889 -24.11999,-86.76367 -34.54555,-40.05099 4.82518,5.729 49.20749,72.30337 34.54555,40.05099 z m -539.82114,-0.71127 c 16.462,-11.99707 60.8422,-65.35642 37.76292,-62.62338 -13.97342,16.69948 -26.03099,57.40142 -37.76292,62.62338 z M 667.5349,894.25 c 3.64627,-44.04453 -36.00062,-19.75856 0,0 z M 115.11761,882.18475 C 133.27675,857.33632 208.26369,838.02967 195,815.27634 c -28.58063,33.64331 -63.8288,29.66851 -88.35688,67.76214 -8.184247,16.69899 2.34863,6.88333 8.47449,-0.85373 z M 759.2851,862.30731 c -0.27932,-16.75458 -32.5306,-40.77107 -10.6847,-6.53811 2.26759,2.53974 12.3499,24.10833 10.6847,6.53811 z M 450,852.96763 c 40.00467,-14.84689 84.77768,-17.29929 125.80472,-32.43739 63.64212,-17.60701 125.12873,-58.87117 149.81184,-121.9917 38.16933,-47.84858 35.27414,-113.09868 32.79887,-170.99821 -8.4605,-40.25248 -18.63663,-95.27803 -60.40771,-112.04278 -24.49916,20.55777 34.10247,51.32666 25.52617,87.50245 9.69966,54.43315 0.37345,111.63707 -31.53389,157.46076 -24.36367,32.46763 -40.30817,73.43837 -76.16905,94.73642 -46.53852,28.94651 -102.47583,39.83759 -156.97541,37.96854 -85.19861,1.17841 -164.24691,-40.05025 -226.1994,-96.03636 C 195.17815,683.72959 193.28709,637.94431 165.37178,611.31242 110.24807,533.37383 110.78827,416.49849 174.94532,343.6322 153.75074,277.05283 116.88131,361.62153 102,388.47543 77.381517,442.5987 75.103187,505.19357 96.049252,561 c 8.152938,50.37973 43.387468,84.94056 69.689948,125 51.97185,77.29464 130.13323,137.63694 220.49247,162.54736 21.12215,2.96398 42.2836,7.25319 63.76833,4.42027 z M 735.33589,845.25 c 5.09455,-24.19262 -32.30167,-50.60817 -11.05448,-13.25 2.82715,3.10039 5.0346,14.6676 11.05448,13.25 z M 166.68351,828.28838 c 21.21567,-14.26905 32.62369,-35.79943 4.94438,-9.44636 -3.18084,1.4622 -19.1945,22.2365 -4.94438,9.44636 z m 311.74765,-52.78927 c 49.52831,0.83485 100.16659,-12.35239 140.70365,-41.17637 15.53691,-29.13559 47.46686,-54.0338 3.29629,-78.70194 -17.27282,-21.56263 -30.11891,-46.04176 -44.6872,-7.03561 C 551.3343,688.92262 501.08102,723.99235 451,711.88994 415.27085,699.85967 401.94239,652.78059 368.24021,693.08065 328.2085,715.81421 289.92258,665.01305 271.01776,655 c -66.6017,30.7939 26.55123,62.72795 51.98224,84.17309 46.68683,26.47224 101.70308,40.88031 155.43116,36.32602 z m 3.2438,-78.7163 c 50.67041,-13.96764 91.75327,-56.50883 102.53327,-108.11021 4.95106,-18.81847 13.26577,-85.04387 31.9439,-42.1226 -15.99468,46.77025 1.48009,93.36766 41.18489,121.45 38.21194,-13.22315 -18.47723,-58.06976 -20.84467,-87.44941 -22.77924,-46.16505 -15.45971,-100.75656 15.04164,-141.54296 21.32439,-42.85825 77.08896,-57.69454 92.44666,-102.77798 7.52143,-21.35095 3.05149,-65.47392 -6.27565,-19.22718 -17.30632,38.10993 -42.68318,90.90286 -93.81604,78.9898 -52.65003,-30.40456 25.08665,-85.3997 15.87514,-128.87747 0.22254,-44.57592 -42.00046,-76.24904 -75.7641,-91.60123 -25.29989,66.83015 -30.25378,139.65396 -36.57608,210.54147 -7.0879,53.84331 21.46435,102.44365 28.49855,154.01573 5.232,42.8166 -25.23785,83.87066 -68.55918,88.70342 -51.98199,21.17405 -86.65696,-49.0398 -60.70195,-89.73274 17.51538,-42.83036 36.7379,-92.81623 16.33866,-137.43679 -1.30615,-33.47494 -82.40758,-94.79163 -61.86141,-26.23168 0.74613,42.71283 13.91631,82.63551 24.1569,123.93334 6.35679,43.34199 3.67769,111.47736 -48.38145,123.67112 -59.39835,14.73996 -81.51845,-58.65732 -57.12329,-101.7661 22.90644,-47.74694 41.53329,-102.04305 23.32177,-154.48638 -10.38508,-29.66365 -42.74446,-56.80032 -44.35759,-7.74986 -21.42059,40.19303 -12.92117,82.48776 -21.82854,122.68653 -4.09341,47.86416 0.64161,117.27969 -55.42725,135.69884 -41.62302,18.5455 21.78348,72.83751 34.31029,21.15331 13.93649,-15.88457 16.80372,-89.87728 46.19057,-57.14756 -18.50403,37.28771 -7.45852,100.79167 43.5,100.00288 35.33146,6.95299 65.44496,-83.06231 82.82518,-40.44117 -28.36297,31.27849 23.76381,68.03546 53.34978,55.85488 z m 207.22511,-73.19069 c 25.09266,-52.06542 28.07934,-118.98077 -0.001,-170.0264 -33.55292,-27.84414 -49.42412,57.69766 -46.11737,84.7254 6.28867,19.24753 24.96657,103.41762 46.11856,85.301 z M 495,617.06258 c 38.17607,-5.39606 67.61914,-39.52869 63.6472,-78.72347 -8.63228,-44.1449 -26.29254,-86.79627 -31.35738,-131.67934 -33.18862,-6.58499 -46.77281,7.67882 -35.84684,41.92571 3.83639,50.94052 -39.40256,92.44646 -32.98288,142.92932 4.7597,15.25809 18.46421,32.97531 36.5399,25.54778 z M 196.42976,604 C 208.89874,560.46826 264.8857,528.75781 253,482.76833 228.04786,521.49687 186.73703,563.81709 185,609 c 1.41589,17.21188 11.83188,-3.96856 11.42976,-5 z M 372.5,609.33037 c 38.73325,-19.70978 38.33377,-74.84552 33.26551,-112.77705 -0.51525,-32.86911 -21.91328,-81.13587 -42.97033,-29.70713 C 349.03301,509.18722 313.43579,558.17954 341,602.107 c 8.23859,7.14991 20.93778,10.23386 31.5,7.22337 z M 230.81232,593.03883 C 247.64864,578.44109 245.77971,549.06511 230,583.1263 c 0.14999,3.52764 -14.10546,23.25371 0.81232,9.91253 z m -60.34837,-14.77096 c 23.71341,-44.05354 50.2364,-86.79052 82.11455,-125.59367 10.48239,-41.9766 19.48046,-85.48793 37.32133,-125.76907 3.71807,-18.94954 58.18785,-87.77293 11.74603,-51.43227 -38.77476,22.69411 -33.4352,97.21357 -93.80624,84.41284 -44.476,-8.4634 -54.3314,62.08267 -61.87539,95.6143 -3.61772,37.05454 0.0362,104.7603 24.49972,122.76787 z M 379.33203,422.77425 c 23.05184,-14.23838 -12.55388,-43.32628 -8.57503,-8.02425 1.54191,2.98778 -2.56967,20.66881 8.57503,8.02425 z M 496.5,385.57038 c 37.6053,7.40729 37.46848,-20.49738 1.34623,-13.96475 -35.54126,-8.74821 -27.77864,23.19735 -1.34623,13.96475 z m -266.07352,-43.9511 c 25.23999,-13.73171 28.60111,-40.15301 2.40441,-14.44039 -60.75597,5.71343 8.2319,-74.19062 33.96548,-44.50434 29.92151,-17.38335 51.66036,-42.35552 12.69156,-65.31756 -26.62229,15.51736 -53.7253,19.34503 -44.35747,53.43847 -22.94207,40.11986 -93.79589,-5.38978 -38.13046,-26.33944 43.05047,-21.72435 -33.96007,-6.42144 -26.0552,25.70495 -3.28541,26.02624 -1.66833,56.99764 26.0552,72.46365 7.10127,7.04446 24.88236,2.27709 33.42648,-1.00534 z m 0.32352,-28.8375 c 12.33921,-18.90259 -22.04752,9.57805 0,0 z m 13.87571,-18.24879 c 0.50427,-10.16552 -6.72328,7.37129 0,0 z M 212.7827,270.62626 c -3.03315,-21.58495 -38.37921,11.67902 0,0 z m 10.04061,-14.19229 c -10.34869,-29.39535 -5.80774,28.90988 0,0 l 0,0 z m 100.79011,-26.02986 c 2.52932,-12.76158 -16.46638,11.64397 0,0 z M 303.07,217.29958 c 23.44989,-41.62793 -30.60315,-2.83374 0,0 z M 24,3.9800042 c 37.371678,-6.1756097 90.01305,0.6709785 132.87052,-1.9504959 18.30872,-3.744975 82.55366,2.4962702 34.4517,5.03737 C 135.54667,6.981011 79.772456,7.4201281 24,7.9600085 l 0,-2.811112 0,-1.1688923 z" id="path2820"/>
</svg>