<?xml version="1.0" encoding="UTF-8" standalone="no"?>
<!-- Created with Inkscape (http://www.inkscape.org/) -->
<svg
   xmlns:a="http://ns.adobe.com/AdobeSVGViewerExtensions/3.0/"
   xmlns:dc="http://purl.org/dc/elements/1.1/"
   xmlns:cc="http://creativecommons.org/ns#"
   xmlns:rdf="http://www.w3.org/1999/02/22-rdf-syntax-ns#"
   xmlns:svg="http://www.w3.org/2000/svg"
   xmlns="http://www.w3.org/2000/svg"
   xmlns:sodipodi="http://sodipodi.sourceforge.net/DTD/sodipodi-0.dtd"
   xmlns:inkscape="http://www.inkscape.org/namespaces/inkscape"
   width="934.01978"
   height="426.47037"
   id="svg6017"
   sodipodi:version="0.32"
   inkscape:version="0.46"
   version="1.0"
   sodipodi:docname="LauBenech4.svg"
   inkscape:output_extension="org.inkscape.output.svg.inkscape">
  <defs
     id="defs6019">
    <inkscape:perspective
       sodipodi:type="inkscape:persp3d"
       inkscape:vp_x="0 : 526.18109 : 1"
       inkscape:vp_y="0 : 1000 : 0"
       inkscape:vp_z="744.09448 : 526.18109 : 1"
       inkscape:persp3d-origin="372.04724 : 350.78739 : 1"
       id="perspective6025" />
  </defs>
  <sodipodi:namedview
     id="base"
     pagecolor="#ffffff"
     bordercolor="#666666"
     borderopacity="1.0"
     inkscape:pageopacity="0.0"
     inkscape:pageshadow="2"
     inkscape:zoom="3.0465076"
     inkscape:cx="190.08512"
     inkscape:cy="-215.96058"
     inkscape:document-units="px"
     inkscape:current-layer="layer1"
     showgrid="false"
     inkscape:window-width="956"
     inkscape:window-height="758"
     inkscape:window-x="0"
     inkscape:window-y="25" />
  <metadata
     id="metadata6022">
    <rdf:RDF>
      <cc:Work
         rdf:about="">
        <dc:format>image/svg+xml</dc:format>
        <dc:type
           rdf:resource="http://purl.org/dc/dcmitype/StillImage" />
      </cc:Work>
    </rdf:RDF>
  </metadata>
  <g
     inkscape:label="Capa 1"
     inkscape:groupmode="layer"
     id="layer1"
     transform="translate(658.43847,283.73014)">
    <path
       style="fill:#f19712;fill-opacity:1;stroke:none;stroke-width:3.18473005;stroke-linecap:round;stroke-linejoin:round;overflow:visible"
       id="path2552"
       d="M -359.91965,-283.73014 C -369.55095,-269.84442 -398.43419,-259.75872 -432.56743,-259.75872 C -466.69219,-259.75872 -495.57755,-269.84233 -505.20252,-283.73014 L -658.43847,-283.73014 L -658.43847,-173.10049 L -563.48258,-173.10049 L -563.48258,96.609069 L -301.65223,96.609069 L -301.65223,-173.10049 L -206.69635,-173.10049 L -206.69635,-283.73014 L -359.91965,-283.73014 z"
       inkscape:export-filename="/home/laura/except/LauBenech4.png"
       inkscape:export-xdpi="51"
       inkscape:export-ydpi="51" />
    <path
       sodipodi:type="arc"
       style="opacity:1;fill:#ffffff;fill-opacity:1;stroke:#0f0c08;stroke-width:6.57466078;stroke-miterlimit:4;stroke-dasharray:none;stroke-dashoffset:0;stroke-opacity:1;overflow:visible"
       id="path3878"
       sodipodi:cx="-12.242741"
       sodipodi:cy="412.35309"
       sodipodi:rx="85.572083"
       sodipodi:ry="85.572083"
       d="M 73.329342,412.35309 A 85.572083,85.572083 0 1 1 -97.814823,412.35309 A 85.572083,85.572083 0 1 1 73.329342,412.35309 z"
       transform="matrix(0.9125946,0,0,0.9125946,-425.43958,-427.37237)"
       inkscape:export-filename="/home/laura/except/LauBenech4.png"
       inkscape:export-xdpi="51"
       inkscape:export-ydpi="51" />
    <text
       id="text2564"
       y="142.38109"
       x="-488.63531"
       style="font-size:25.36214447px;font-style:normal;font-weight:normal;fill:#000000;fill-opacity:1;stroke:none;stroke-width:1px;stroke-linecap:butt;stroke-linejoin:miter;stroke-opacity:1;overflow:visible;font-family:Bitstream Vera Sans"
       xml:space="preserve"
       inkscape:export-filename="/home/laura/except/LauBenech4.png"
       inkscape:export-xdpi="51"
       inkscape:export-ydpi="51"><tspan
         y="142.38109"
         x="-488.63531"
         id="tspan2566"
         sodipodi:role="line">Adelante</tspan></text>
    <text
       id="text2568"
       y="142.38109"
       x="13.972407"
       style="font-size:25.36214447px;font-style:normal;font-weight:normal;fill:#000000;fill-opacity:1;stroke:none;stroke-width:1px;stroke-linecap:butt;stroke-linejoin:miter;stroke-opacity:1;overflow:visible;font-family:Bitstream Vera Sans"
       xml:space="preserve"
       inkscape:export-filename="/home/laura/except/LauBenech4.png"
       inkscape:export-xdpi="51"
       inkscape:export-ydpi="51"><tspan
         y="142.38109"
         x="13.972407"
         id="tspan2570"
         sodipodi:role="line">Atrás</tspan></text>
    <polygon
       transform="matrix(2.1135121,0,0,2.1135121,-177.83043,-1403.9278)"
       style="fill:#f19712;fill-opacity:1;stroke:none;stroke-width:1.57620001;stroke-linecap:round;stroke-linejoin:round;overflow:visible"
       id="polygon2550"
       points="0.788,530.608 0.788,582.951 45.717,582.951 45.717,710.563 169.602,710.563 169.602,582.951 214.53,582.951 214.53,530.608 0.788,530.608 "
       inkscape:export-filename="/home/laura/except/LauBenech4.png"
       inkscape:export-xdpi="51"
       inkscape:export-ydpi="51" />
    <path
       id="path3037"
       d="M -454.85538,6.2459515 C -454.92023,6.0402186 -455.05899,5.2318164 -455.16373,4.4495022 C -455.39708,2.7067246 -456.78376,0.78526435 -458.41672,-0.057939228 C -459.41629,-0.57410199 -460.09846,-0.6471357 -463.50391,-0.60260627 C -466.20818,-0.5672505 -467.97876,-0.69307727 -469.17198,-1.0054214 C -470.12637,-1.2552444 -471.85661,-1.4596593 -473.01697,-1.4596593 C -475.73371,-1.4596593 -476.83647,-1.9921819 -478.6619,-4.1856514 C -479.95447,-5.7388468 -480.12525,-6.1182832 -480.31057,-7.848749 C -480.42429,-8.9104889 -480.39861,-10.83788 -480.25357,-12.131859 C -479.94962,-14.843186 -480.20718,-16.847126 -480.96919,-17.69967 C -481.26185,-18.027129 -484.4758,-20.969472 -485.13414,-21.261083 C -486.10136,-23.128192 -483.30211,-23.688277 -477.64525,-26.266476 C -472.71314,-28.514381 -487.36065,-20.191289 -486.75007,-24.847235 C -486.09465,-29.845065 -483.69805,-33.619471 -484.35787,-34.990856 C -489.01227,-34.959705 -495.03165,-35.452991 -495.34123,-39.92264 C -493.06415,-46.686731 -488.00489,-52.047721 -485.37221,-58.795107 C -485.46776,-59.175704 -485.38362,-60.09395 -485.18525,-60.835647 C -484.86062,-62.049375 -484.90832,-62.474177 -485.66248,-65.085211 C -486.39408,-67.618127 -486.47353,-68.273129 -486.28857,-70.246975 C -486.17204,-71.490357 -485.94434,-72.849535 -485.78257,-73.267351 C -485.41028,-74.228881 -484.2235,-78.227984 -483.15456,-82.123091 C -479.34484,-95.93006 -466.15137,-108.97959 -451.89621,-111.9624 C -445.46983,-113.92837 -441.31506,-114.58917 -423.68427,-114.78025 C -418.67955,-114.25522 -407.67373,-110.38869 -403.81521,-107.79991 C -400.42229,-105.52349 -395.68375,-100.06748 -392.93612,-95.273531 C -389.67317,-89.5805 -388.9106,-87.378819 -387.70185,-80.161567 C -387.35727,-78.104249 -386.95792,-76.017004 -386.81437,-75.523247 C -386.16109,-73.27598 -386.69602,-64.405491 -387.71403,-60.605311 C -387.89693,-59.922537 -389.32867,-56.738029 -390.89571,-53.528594 C -395.46602,-44.168093 -397.64019,-37.817194 -398.47662,-31.384338 C -398.6585,-29.985359 -398.86031,-25.298827 -398.9251,-20.969827 C -398.98989,-16.640817 -399.1185,-12.976517 -399.21097,-12.826945 C -399.39207,-12.533869 -399.87123,-12.44504 -403.99638,-11.939787 C -405.47765,-11.758354 -407.96888,-11.356438 -409.53244,-11.046636 C -411.09601,-10.736844 -413.65457,-10.253318 -415.21813,-9.9721241 C -417.92617,-9.4851351 -426.58939,-7.1072717 -429.13311,-6.1527812 C -429.79145,-5.9057406 -431.8778,-5.2071819 -433.76943,-4.6004331 C -437.75716,-3.3213599 -440.5773,-1.9701735 -445.06794,0.81291088 C -448.32417,2.8309614 -448.81963,3.1415272 -452.3456,5.3747981 C -454.4932,6.7350431 -454.68071,6.8001374 -454.85538,6.2459515 z"
       style="fill:none;stroke:#3e3c39;stroke-width:1.5;stroke-miterlimit:4;stroke-dasharray:none;stroke-opacity:1;overflow:visible"
       sodipodi:nodetypes="cssssssssscszcccsssscccssssssssssssssssc"
       inkscape:export-filename="/home/laura/except/LauBenech4.png"
       inkscape:export-xdpi="51"
       inkscape:export-ydpi="51" />
    <path
       style="fill:#090c06;fill-opacity:1;fill-rule:evenodd;stroke:none;stroke-width:0.78104180000000001px;stroke-linecap:butt;stroke-linejoin:miter;stroke-opacity:1;overflow:visible"
       d="M -446.00578,-108.16523 C -438.83068,-108.59332 -431.37423,-109.36391 -429.40462,-108.9358 C -427.43497,-108.50772 -420.54126,-107.39466 -419.41576,-107.13778 C -418.29026,-106.88093 -411.39654,-95.493458 -410.6931,-93.524195 C -409.98966,-91.554931 -404.36215,-76.657037 -404.36215,-76.657037 C -404.36215,-76.657037 -408.67678,-72.142232 -414.77971,-73.142685 C -430.94684,-75.792976 -453.45159,-67.201567 -454.85844,-67.80091 C -458.12172,-76.861473 -456.55688,-85.785477 -458.10493,-92.154274 C -458.10493,-93.267332 -458.94906,-100.03132 -458.94906,-101.6581 C -459.97629,-103.9316 -450.43718,-107.71497 -446.00578,-108.16523 z"
       id="path3859"
       sodipodi:nodetypes="cssscscccc"
       inkscape:export-filename="/home/laura/except/LauBenech4.png"
       inkscape:export-xdpi="51"
       inkscape:export-ydpi="51" />
    <path
       id="path3033"
       d="M -489.07249,-38.152801 C -486.82775,-38.452991 -485.05769,-38.427771 -484.48331,-37.551199 C -483.92013,-36.691688 -483.33809,-36.800454 -484.15995,-36.36062 C -487.59919,-35.444016 -497.02006,-37.200759 -489.07249,-38.152801 z M -409.75448,-20.523079 C -423.0262,-29.117427 -430.17389,-39.996406 -436.61623,-34.827958 C -432.33721,-63.116659 -454.35098,-51.939635 -457.11269,-70.534109 C -458.62066,-78.099688 -459.98872,-85.578949 -460.2137,-93.32843 C -460.82204,-105.48897 -463.55136,-103.52937 -453.35855,-107.70351 C -443.16575,-111.87766 -431.36756,-111.9905 -419.92559,-108.66435 C -419.66796,-108.56714 -418.92272,-104.66745 -420.94063,-104.61655 C -437.91942,-107.58644 -459.23918,-103.33641 -458.01716,-100.59846 C -456.62728,-97.484396 -455.39013,-76.878021 -453.42661,-70.218564 C -449.93149,-65.685569 -457.11518,-73.822488 -418.29089,-75.047837 C -415.71039,-83.492677 -420.64219,-103.11152 -420.91864,-104.63928 C -421.15304,-105.93483 -421.51037,-108.8959 -419.97029,-108.61313 C -410.24573,-106.82771 -385.38014,-75.051907 -404.5033,-42.338118 C -406.33388,-40.155946 -405.39781,-21.337339 -409.03324,-20.352953 C -409.06092,-20.375369 -409.38548,-20.451928 -409.75448,-20.523079 z M -475.1421,-51.807929 C -475.35532,-52.178255 -475.67581,-52.750558 -475.85431,-53.079733 C -476.03281,-53.408907 -476.56846,-53.746199 -477.04459,-53.829275 C -478.01915,-53.999296 -478.30736,-54.933682 -477.79828,-56.272682 C -477.56094,-56.896868 -477.26041,-57.06439 -476.15407,-57.189087 C -475.40951,-57.27301 -474.26148,-57.62254 -473.6029,-57.965805 C -472.64632,-58.464395 -472.14655,-58.544206 -471.1181,-58.362647 C -469.92964,-58.152845 -469.83559,-58.069079 -469.8946,-57.272727 C -469.98815,-56.01083 -473.51369,-51.134632 -474.33252,-51.134632 C -474.56459,-51.134632 -474.92889,-51.437614 -475.1421,-51.807929 z M -479.06331,-58.369698 C -479.36124,-58.536424 -479.88047,-58.600807 -480.21718,-58.512752 C -481.12506,-58.275335 -482.24889,-59.136154 -482.25236,-60.071638 C -482.25394,-60.505322 -482.5906,-61.580492 -483.00047,-62.460914 C -483.92269,-64.441977 -483.9232,-64.62886 -483.00855,-65.488141 C -482.19849,-66.249148 -482.41476,-66.266104 -477.31185,-65.041518 C -474.92272,-64.46818 -472.48841,-63.067903 -472.21379,-62.10903 C -472.11136,-61.751319 -471.96183,-61.222991 -471.88151,-60.934957 C -471.69128,-60.252884 -472.1973,-60.270112 -473.20933,-60.980166 C -473.67217,-61.304906 -474.76152,-61.616988 -475.74763,-61.707365 C -477.33259,-61.852617 -477.51432,-61.805786 -477.95071,-61.139801 C -478.27713,-60.641619 -478.36598,-60.092276 -478.23395,-59.388571 C -478.01718,-58.233055 -478.26818,-57.924717 -479.06331,-58.369698 z"
       style="fill:#090c06;fill-opacity:1;overflow:visible"
       sodipodi:nodetypes="cscccccczccsccssccccssssssssccsssssssssssc"
       inkscape:export-filename="/home/laura/except/LauBenech4.png"
       inkscape:export-xdpi="51"
       inkscape:export-ydpi="51" />
    <path
       sodipodi:type="spiral"
       style="fill:#000000;fill-opacity:0;fill-rule:evenodd;stroke:#ffffff;stroke-width:3.00794125;stroke-linecap:butt;stroke-linejoin:miter;stroke-miterlimit:4;stroke-dasharray:none;stroke-opacity:1;overflow:visible"
       id="path3865"
       sodipodi:cx="1070.5466"
       sodipodi:cy="471.6145"
       sodipodi:expansion="1"
       sodipodi:revolution="1"
       sodipodi:radius="28.895212"
       sodipodi:argument="-17.973497"
       sodipodi:t0="0"
       d="M 1070.5466,471.6145 C 1073.329,474.95341 1067.4186,477.01245 1064.9971,476.23907 C 1058.4352,474.14325 1058.1384,465.46715 1061.2975,460.51554 C 1066.9484,451.65827 1079.5274,451.70401 1087.1951,457.74081 C 1098.4477,466.60006 1098.0278,483.53374 1089.0449,493.81243"
       transform="matrix(0.1060659,-0.3990354,-0.3284428,-0.1288627,-387.01867,439.05976)"
       inkscape:export-filename="/home/laura/except/LauBenech4.png"
       inkscape:export-xdpi="51"
       inkscape:export-ydpi="51" />
    <path
       style="fill:#090c06;fill-opacity:1;fill-rule:evenodd;stroke:none;stroke-width:1px;stroke-linecap:butt;stroke-linejoin:miter;stroke-opacity:1;overflow:visible"
       d="M -408.97379,-110.60791 C -408.97379,-110.60791 -408.23298,-117.85496 -403.78812,-122.49309 C -399.34326,-127.1312 -391.93516,-132.34907 -391.93516,-132.34907 L -397.49124,-124.52226 L -388.97192,-131.18955 C -388.97192,-131.18955 -391.93516,-126.55144 -394.8984,-123.65261 C -397.86164,-120.75379 -401.19529,-122.2032 -403.41772,-117.85496 C -405.64015,-113.50674 -408.23298,-105.9698 -408.23298,-105.9698 L -408.97379,-110.60791 z"
       id="path6008"
       inkscape:export-filename="/home/laura/except/LauBenech4.png"
       inkscape:export-xdpi="51"
       inkscape:export-ydpi="51" />
    <path
       style="fill:#f19712;fill-opacity:1;fill-rule:evenodd;stroke:#0f0c08;stroke-width:3;stroke-linecap:butt;stroke-linejoin:miter;stroke-miterlimit:4;stroke-dasharray:none;stroke-opacity:1;overflow:visible"
       d="M -414.51092,-136.86435 C -414.51092,-136.86435 -418.66862,-141.36128 -421.44041,-134.93709 C -424.21221,-128.51288 -428.3699,-116.30691 -426.29105,-111.80995 C -425.53895,-110.18301 -424.41358,-105.50388 -425.11845,-103.7388 C -426.36184,-100.62516 -436.42359,-97.656384 -439.56168,-97.388255 C -445.57671,-96.87432 -456.094,-88.426322 -456.094,-88.426322 L -454.13532,-72.238184 C -454.13532,-72.238184 -453.73398,-68.407188 -451.70298,-68.634553 C -450.73731,-68.74266 -449.9323,-69.978616 -448.78458,-70.505741 C -444.52569,-73.826139 -439.25487,-75.733269 -434.39783,-78.210735 C -425.01587,-83.256515 -414.25989,-95.526429 -414.25989,-95.526429 C -397.79591,-96.756674 -392.32103,-91.2238 -381.29665,-100.80465 C -380.03324,-102.36921 -381.3732,-103.50006 -382.80265,-103.91336 C -388.10854,-105.44748 -401.8386,-102.6928 -407.52329,-108.47535 C -406.19553,-110.97749 -413.81797,-136.86435 -414.51092,-136.86435 z"
       id="path3414"
       sodipodi:nodetypes="cssssccsccccscc"
       inkscape:export-filename="/home/laura/except/LauBenech4.png"
       inkscape:export-xdpi="51"
       inkscape:export-ydpi="51" />
    <g
       style="overflow:visible"
       id="g6010"
       transform="matrix(1.0460285,0,0,1.0460285,-447.59945,-483.0735)"
       inkscape:export-filename="/home/laura/except/LauBenech4.png"
       inkscape:export-xdpi="51"
       inkscape:export-ydpi="51">
      <g
         transform="matrix(0.992865,0.1192435,-0.1192435,0.992865,36.112679,-6.5960248)"
         id="g3948">
        <path
           sodipodi:type="arc"
           style="opacity:1;fill:#090c06;fill-opacity:1;stroke:none;stroke-width:8;stroke-miterlimit:4;stroke-dasharray:none;stroke-dashoffset:0;stroke-opacity:1"
           id="path3884"
           sodipodi:cx="66.055931"
           sodipodi:cy="282.80875"
           sodipodi:rx="43.423817"
           sodipodi:ry="22.067842"
           d="M 109.47975,282.80875 A 43.423817,22.067842 0 1 1 22.632114,282.80875 A 43.423817,22.067842 0 1 1 109.47975,282.80875 z"
           transform="matrix(0.967591,-0.2525227,0.2525227,0.967591,-62.156155,41.507225)" />
        <text
           xml:space="preserve"
           style="font-size:22.19476891px;font-style:italic;font-variant:normal;font-weight:bold;font-stretch:normal;text-align:start;line-height:125%;writing-mode:lr-tb;text-anchor:start;fill:#ffffff;fill-opacity:1;stroke:none;stroke-width:1px;stroke-linecap:butt;stroke-linejoin:miter;stroke-opacity:1;overflow:visible;font-family:DejaVu Sans;-inkscape-font-specification:DejaVu Sans Bold Italic"
           x="-94.121819"
           y="325.69199"
           id="text2572"
           sodipodi:linespacing="125%"
           transform="matrix(0.9764259,-0.3758202,0.4267538,0.8598884,0,0)"><tspan
             sodipodi:role="line"
             id="tspan2574"
             x="-94.121819"
             y="325.69199">PyAr</tspan></text>
      </g>
      <path
         sodipodi:nodetypes="cscscc"
         id="path3886"
         d="M 53.593842,316.79103 C 53.593842,316.79103 59.206092,314.13722 53.192967,321.10346 C 47.179843,328.06969 47.179843,328.06969 47.179843,328.06969 C 47.179843,328.06969 55.756495,326.59427 59.765246,322.61356 C 63.773995,318.63285 65.825072,316.16223 65.825072,316.16223 L 53.593842,316.79103 z"
         style="fill:#090c06;fill-opacity:1;fill-rule:evenodd;stroke:none;stroke-width:1px;stroke-linecap:butt;stroke-linejoin:miter;stroke-opacity:1" />
    </g>
    <text
       inkscape:export-ydpi="51.947216"
       inkscape:export-xdpi="51.947216"
       inkscape:export-filename="/home/laura/except/LauBenech4.png"
       sodipodi:linespacing="125%"
       id="text3928"
       y="-155.54471"
       x="-31.896236"
       style="font-size:19.05992889px;font-style:italic;font-variant:normal;font-weight:bold;font-stretch:normal;text-align:start;line-height:125%;writing-mode:lr-tb;text-anchor:start;fill:#ffffff;fill-opacity:1;stroke:none;stroke-width:1px;stroke-linecap:butt;stroke-linejoin:miter;stroke-opacity:1;overflow:visible;font-family:Sans"
       xml:space="preserve"><tspan
         y="-155.54471"
         x="-31.896236"
         id="tspan3930"
         sodipodi:role="line"><tspan
   id="tspan3932"
   style="font-size:19.05992889px;font-style:italic;font-variant:normal;font-weight:bold;font-stretch:normal;text-align:start;line-height:125%;writing-mode:lr-tb;text-anchor:start;fill:#ffffff;fill-opacity:1;font-family:Sans">Python inside</tspan> ...</tspan></text>
    <g
       inkscape:export-ydpi="51.947216"
       inkscape:export-xdpi="51.947216"
       inkscape:export-filename="/home/laura/except/LauBenech4.png"
       transform="matrix(1.9074234,0,0,1.9074234,1303.5243,-3564.5325)"
       id="g3934"
       style="fill:#131312;fill-opacity:1;overflow:visible"><text
   sodipodi:linespacing="125%"
   id="text3936"
   y="1805.7338"
   x="-690.11938"
   style="font-size:6.0059514px;font-style:normal;font-variant:normal;font-weight:normal;font-stretch:normal;text-align:start;line-height:125%;writing-mode:lr-tb;text-anchor:start;fill:#131312;fill-opacity:1;stroke:none;stroke-width:1px;stroke-linecap:butt;stroke-linejoin:miter;stroke-opacity:1;font-family:DejaVu Sans Mono"
   xml:space="preserve"><tspan
     style="font-size:6.0059514px;font-style:normal;font-variant:normal;font-weight:normal;font-stretch:normal;text-align:start;line-height:125%;writing-mode:lr-tb;text-anchor:start;fill:#131312;fill-opacity:1;stroke:none;stroke-opacity:1;font-family:DejaVu Sans Mono"
     y="1805.7338"
     x="-690.11938"
     id="tspan3938"
     sodipodi:role="line">www.</tspan></text>




<text
   sodipodi:linespacing="125%"
   id="text3940"
   y="1961.4507"
   x="-622.27716"
   style="font-size:6.99741507px;font-style:normal;font-variant:normal;font-weight:normal;font-stretch:normal;text-align:start;line-height:125%;writing-mode:lr-tb;text-anchor:start;fill:#131312;fill-opacity:1;stroke:none;stroke-width:1px;stroke-linecap:butt;stroke-linejoin:miter;stroke-opacity:1;font-family:DejaVu Sans Mono"
   xml:space="preserve"
   transform="scale(1.0862267,0.9206181)"><tspan
     style="font-size:6.99741507px;font-style:normal;font-variant:normal;font-weight:normal;font-stretch:normal;text-align:start;line-height:125%;writing-mode:lr-tb;text-anchor:start;fill:#131312;fill-opacity:1;stroke:none;stroke-opacity:1;font-family:DejaVu Sans Mono"
     y="1961.4507"
     x="-622.27716"
     id="tspan3942"
     sodipodi:role="line">Python</tspan></text>




<text
   sodipodi:linespacing="125%"
   id="text3944"
   y="1805.7308"
   x="-649.18097"
   style="font-size:6.0059514px;font-style:normal;font-variant:normal;font-weight:normal;font-stretch:normal;text-align:start;line-height:125%;writing-mode:lr-tb;text-anchor:start;fill:#131312;fill-opacity:1;stroke:none;stroke-width:1px;stroke-linecap:butt;stroke-linejoin:miter;stroke-opacity:1;font-family:DejaVu Sans Mono"
   xml:space="preserve"><tspan
     style="font-size:6.0059514px;font-style:normal;font-variant:normal;font-weight:normal;font-stretch:normal;text-align:start;line-height:125%;writing-mode:lr-tb;text-anchor:start;fill:#131312;fill-opacity:1;stroke:none;stroke-opacity:1;font-family:DejaVu Sans Mono"
     y="1805.7308"
     x="-649.18097"
     id="tspan3946"
     sodipodi:role="line">.com.ar</tspan></text>




</g>
    <g
       style="overflow:visible"
       id="g3957"
       transform="matrix(1.0460285,0,0,1.0460285,-435.54433,-476.66716)"
       inkscape:export-filename="/home/laura/except/LauBenech4.png"
       inkscape:export-xdpi="51"
       inkscape:export-ydpi="51">
      <path
         d="M 14.959126,345.86209 A 1.8022184,3.2439933 0 1 1 11.354689,345.86209 A 1.8022184,3.2439933 0 1 1 14.959126,345.86209 z"
         sodipodi:ry="3.2439933"
         sodipodi:rx="1.8022184"
         sodipodi:cy="345.86209"
         sodipodi:cx="13.156907"
         id="path3953"
         style="opacity:1;fill:#090c06;fill-opacity:1;stroke:none;stroke-width:1.5;stroke-miterlimit:4;stroke-dasharray:none;stroke-dashoffset:0;stroke-opacity:1"
         sodipodi:type="arc" />
      <path
         transform="translate(-3.218724,-9.4300604)"
         d="M 18.203118,355.41385 A 1.8022184,0.54066557 0 1 1 14.598681,355.41385 A 1.8022184,0.54066557 0 1 1 18.203118,355.41385 z"
         sodipodi:ry="0.54066557"
         sodipodi:rx="1.8022184"
         sodipodi:cy="355.41385"
         sodipodi:cx="16.4009"
         id="path3955"
         style="opacity:1;fill:#ffffff;fill-opacity:1;stroke:none;stroke-width:1.5;stroke-miterlimit:4;stroke-dasharray:none;stroke-dashoffset:0;stroke-opacity:1"
         sodipodi:type="arc" />
    </g>
    <text
       y="-248.7365"
       x="-313.40125"
       style="font-size:4.25167418px;fill:#ffffff;fill-opacity:1;overflow:visible"
       a:adobe-opacity-share="0"
       id="text2554"
       transform="matrix(0.9655217,-0.2603226,0.2603226,0.9655217,0,0)"
       inkscape:export-filename="/home/laura/except/LauBenech4.png"
       inkscape:export-xdpi="51"
       inkscape:export-ydpi="51">
      <tspan
         style="font-size:3.04801512px;fill:#ffffff;fill-opacity:1;font-family:Arial-Black"
         id="tspan2556"
         font-size="3"
         y="-248.7365"
         x="-313.40125">Python Argentina</tspan>
      <tspan
         style="font-size:3.04801512px;fill:#ffffff;fill-opacity:1;font-family:Arial-Black"
         id="tspan2558"
         font-size="3"
         y="-248.7365"
         x="-295.49414" />
      <tspan
         style="font-size:3.04801512px;fill:#ffffff;fill-opacity:1;font-family:Arial-Black"
         id="tspan2560"
         font-size="3"
         y="-248.7365"
         x="-293.73746" />
      <tspan
         style="font-size:3.04801512px;fill:#ffffff;fill-opacity:1;font-family:Arial-Black"
         id="tspan2562"
         font-size="3"
         y="-248.7365"
         x="-281.05978" />
    </text>
    <path
       inkscape:export-ydpi="51"
       inkscape:export-xdpi="51"
       inkscape:export-filename="/home/laura/except/LauBenech4.png"
       d="M -359.91965,176.26986 C -369.55095,190.15558 -398.43419,200.24128 -432.56743,200.24128 C -466.69219,200.24128 -495.57755,190.15767 -505.20252,176.26986 L -658.43847,176.26986 L -658.43847,286.89951 L -563.48258,286.89951 L -563.48258,556.60907 L -301.65223,556.60907 L -301.65223,286.89951 L -206.69635,286.89951 L -206.69635,176.26986 L -359.91965,176.26986 z"
       id="path6084"
       style="fill:#a7f128;fill-opacity:1;stroke:none;stroke-width:3.18473005000000020;stroke-linecap:round;stroke-linejoin:round;overflow:visible" />
    <path
       inkscape:export-ydpi="51"
       inkscape:export-xdpi="51"
       inkscape:export-filename="/home/laura/except/LauBenech4.png"
       transform="matrix(0.9125946,0,0,0.9125946,-425.43958,32.62763)"
       d="M 73.329342,412.35309 A 85.572083,85.572083 0 1 1 -97.814823,412.35309 A 85.572083,85.572083 0 1 1 73.329342,412.35309 z"
       sodipodi:ry="85.572083"
       sodipodi:rx="85.572083"
       sodipodi:cy="412.35309"
       sodipodi:cx="-12.242741"
       id="path6086"
       style="opacity:1;fill:#ffffff;fill-opacity:1;stroke:#0f0c08;stroke-width:6.57466078;stroke-miterlimit:4;stroke-dasharray:none;stroke-dashoffset:0;stroke-opacity:1;overflow:visible"
       sodipodi:type="arc" />
    <text
       inkscape:export-ydpi="51"
       inkscape:export-xdpi="51"
       inkscape:export-filename="/home/laura/except/LauBenech4.png"
       xml:space="preserve"
       style="font-size:25.36214447px;font-style:normal;font-weight:normal;fill:#000000;fill-opacity:1;stroke:none;stroke-width:1px;stroke-linecap:butt;stroke-linejoin:miter;stroke-opacity:1;overflow:visible;font-family:Bitstream Vera Sans"
       x="-488.63531"
       y="602.3811"
       id="text6088"><tspan
         sodipodi:role="line"
         id="tspan6090"
         x="-488.63531"
         y="602.3811">Adelante</tspan></text>
    <text
       inkscape:export-ydpi="51"
       inkscape:export-xdpi="51"
       inkscape:export-filename="/home/laura/except/LauBenech4.png"
       xml:space="preserve"
       style="font-size:25.36214447px;font-style:normal;font-weight:normal;fill:#000000;fill-opacity:1;stroke:none;stroke-width:1px;stroke-linecap:butt;stroke-linejoin:miter;stroke-opacity:1;overflow:visible;font-family:Bitstream Vera Sans"
       x="13.972407"
       y="602.3811"
       id="text6092"><tspan
         sodipodi:role="line"
         id="tspan6094"
         x="13.972407"
         y="602.3811">Atrás</tspan></text>
    <polygon
       inkscape:export-ydpi="51"
       inkscape:export-xdpi="51"
       inkscape:export-filename="/home/laura/except/LauBenech4.png"
       points="0.788,530.608 0.788,582.951 45.717,582.951 45.717,710.563 169.602,710.563 169.602,582.951 214.53,582.951 214.53,530.608 0.788,530.608 "
       id="polygon6096"
       style="fill:#a7f128;fill-opacity:1;stroke:none;stroke-width:1.57620000999999998;stroke-linecap:round;stroke-linejoin:round;overflow:visible"
       transform="matrix(2.1135121,0,0,2.1135121,-177.83043,-943.9278)" />
    <path
       inkscape:export-ydpi="51"
       inkscape:export-xdpi="51"
       inkscape:export-filename="/home/laura/except/LauBenech4.png"
       sodipodi:nodetypes="cssssssssscszcccsssscccssssssssssssssssc"
       style="fill:none;stroke:#0f0c08;stroke-width:1.50000000000000000;stroke-miterlimit:4;stroke-dasharray:none;stroke-opacity:1;overflow:visible"
       d="M -454.85538,466.24595 C -454.92023,466.04022 -455.05899,465.23182 -455.16373,464.4495 C -455.39708,462.70673 -456.78376,460.78526 -458.41672,459.94206 C -459.41629,459.4259 -460.09846,459.35286 -463.50391,459.39739 C -466.20818,459.43275 -467.97876,459.30692 -469.17198,458.99458 C -470.12637,458.74476 -471.85661,458.54034 -473.01697,458.54034 C -475.73371,458.54034 -476.83647,458.00782 -478.6619,455.81435 C -479.95447,454.26115 -480.12525,453.88172 -480.31057,452.15125 C -480.42429,451.08951 -480.39861,449.16212 -480.25357,447.86814 C -479.94962,445.15681 -480.20718,443.15287 -480.96919,442.30033 C -481.26185,441.97287 -484.4758,439.03053 -485.13414,438.73892 C -486.10136,436.87181 -483.30211,436.31172 -477.64525,433.73352 C -472.71314,431.48562 -487.36065,439.80871 -486.75007,435.15276 C -486.09465,430.15493 -483.69805,426.38053 -484.35787,425.00914 C -489.01227,425.0403 -495.03165,424.54701 -495.34123,420.07736 C -493.06415,413.31327 -488.00489,407.95228 -485.37221,401.20489 C -485.46776,400.8243 -485.38362,399.90605 -485.18525,399.16435 C -484.86062,397.95063 -484.90832,397.52582 -485.66248,394.91479 C -486.39408,392.38187 -486.47353,391.72687 -486.28857,389.75302 C -486.17204,388.50964 -485.94434,387.15046 -485.78257,386.73265 C -485.41028,385.77112 -484.2235,381.77202 -483.15456,377.87691 C -479.34484,364.06994 -466.15137,351.02041 -451.89621,348.0376 C -445.46983,346.07163 -441.31506,345.41083 -423.68427,345.21975 C -418.67955,345.74478 -407.67373,349.61131 -403.81521,352.20009 C -400.42229,354.47651 -395.68375,359.93252 -392.93612,364.72647 C -389.67317,370.4195 -388.9106,372.62118 -387.70185,379.83843 C -387.35727,381.89575 -386.95792,383.983 -386.81437,384.47675 C -386.16109,386.72402 -386.69602,395.59451 -387.71403,399.39469 C -387.89693,400.07746 -389.32867,403.26197 -390.89571,406.47141 C -395.46602,415.83191 -397.64019,422.18281 -398.47662,428.61566 C -398.6585,430.01464 -398.86031,434.70117 -398.9251,439.03017 C -398.98989,443.35918 -399.1185,447.02348 -399.21097,447.17306 C -399.39207,447.46613 -399.87123,447.55496 -403.99638,448.06021 C -405.47765,448.24165 -407.96888,448.64356 -409.53244,448.95336 C -411.09601,449.26316 -413.65457,449.74668 -415.21813,450.02788 C -417.92617,450.51486 -426.58939,452.89273 -429.13311,453.84722 C -429.79145,454.09426 -431.8778,454.79282 -433.76943,455.39957 C -437.75716,456.67864 -440.5773,458.02983 -445.06794,460.81291 C -448.32417,462.83096 -448.81963,463.14153 -452.3456,465.3748 C -454.4932,466.73504 -454.68071,466.80014 -454.85538,466.24595 z"
       id="path6098" />
    <path
       inkscape:export-ydpi="51"
       inkscape:export-xdpi="51"
       inkscape:export-filename="/home/laura/except/LauBenech4.png"
       sodipodi:nodetypes="cssscscccc"
       id="path6100"
       d="M -446.00578,351.83477 C -438.83068,351.40668 -431.37423,350.63609 -429.40462,351.0642 C -427.43497,351.49228 -420.54126,352.60534 -419.41576,352.86222 C -418.29026,353.11907 -411.39654,364.50654 -410.6931,366.4758 C -409.98966,368.44507 -404.36215,383.34296 -404.36215,383.34296 C -404.36215,383.34296 -408.67678,387.85777 -414.77971,386.85731 C -430.94684,384.20702 -453.45159,392.79843 -454.85844,392.19909 C -458.12172,383.13853 -456.55688,374.21452 -458.10493,367.84573 C -458.10493,366.73267 -458.94906,359.96868 -458.94906,358.3419 C -459.97629,356.0684 -450.43718,352.28503 -446.00578,351.83477 z"
       style="fill:#090c06;fill-opacity:1;fill-rule:evenodd;stroke:none;stroke-width:0.78104180000000001px;stroke-linecap:butt;stroke-linejoin:miter;stroke-opacity:1;overflow:visible" />
    <path
       inkscape:export-ydpi="51"
       inkscape:export-xdpi="51"
       inkscape:export-filename="/home/laura/except/LauBenech4.png"
       sodipodi:nodetypes="cscccccczccsccssccccssssssssccsssssssssssc"
       style="fill:#090c06;fill-opacity:1;overflow:visible"
       d="M -489.07249,421.8472 C -486.82775,421.54701 -485.05769,421.57223 -484.48331,422.4488 C -483.92013,423.30831 -483.33809,423.19955 -484.15995,423.63938 C -487.59919,424.55598 -497.02006,422.79924 -489.07249,421.8472 z M -409.75448,439.47692 C -423.0262,430.88257 -430.17389,420.00359 -436.61623,425.17204 C -432.33721,396.88334 -454.35098,408.06036 -457.11269,389.46589 C -458.62066,381.90031 -459.98872,374.42105 -460.2137,366.67157 C -460.82204,354.51103 -463.55136,356.47063 -453.35855,352.29649 C -443.16575,348.12234 -431.36756,348.0095 -419.92559,351.33565 C -419.66796,351.43286 -418.92272,355.33255 -420.94063,355.38345 C -437.91942,352.41356 -459.23918,356.66359 -458.01716,359.40154 C -456.62728,362.5156 -455.39013,383.12198 -453.42661,389.78144 C -449.93149,394.31443 -457.11518,386.17751 -418.29089,384.95216 C -415.71039,376.50732 -420.64219,356.88848 -420.91864,355.36072 C -421.15304,354.06517 -421.51037,351.1041 -419.97029,351.38687 C -410.24573,353.17229 -385.38014,384.94809 -404.5033,417.66188 C -406.33388,419.84405 -405.39781,438.66266 -409.03324,439.64705 C -409.06092,439.62463 -409.38548,439.54807 -409.75448,439.47692 z M -475.1421,408.19207 C -475.35532,407.82174 -475.67581,407.24944 -475.85431,406.92027 C -476.03281,406.59109 -476.56846,406.2538 -477.04459,406.17073 C -478.01915,406.0007 -478.30736,405.06632 -477.79828,403.72732 C -477.56094,403.10313 -477.26041,402.93561 -476.15407,402.81091 C -475.40951,402.72699 -474.26148,402.37746 -473.6029,402.03419 C -472.64632,401.53561 -472.14655,401.45579 -471.1181,401.63735 C -469.92964,401.84716 -469.83559,401.93092 -469.8946,402.72727 C -469.98815,403.98917 -473.51369,408.86537 -474.33252,408.86537 C -474.56459,408.86537 -474.92889,408.56239 -475.1421,408.19207 z M -479.06331,401.6303 C -479.36124,401.46358 -479.88047,401.39919 -480.21718,401.48725 C -481.12506,401.72467 -482.24889,400.86385 -482.25236,399.92836 C -482.25394,399.49468 -482.5906,398.41951 -483.00047,397.53909 C -483.92269,395.55802 -483.9232,395.37114 -483.00855,394.51186 C -482.19849,393.75085 -482.41476,393.7339 -477.31185,394.95848 C -474.92272,395.53182 -472.48841,396.9321 -472.21379,397.89097 C -472.11136,398.24868 -471.96183,398.77701 -471.88151,399.06504 C -471.69128,399.74712 -472.1973,399.72989 -473.20933,399.01983 C -473.67217,398.69509 -474.76152,398.38301 -475.74763,398.29264 C -477.33259,398.14738 -477.51432,398.19421 -477.95071,398.8602 C -478.27713,399.35838 -478.36598,399.90772 -478.23395,400.61143 C -478.01718,401.76694 -478.26818,402.07528 -479.06331,401.6303 z"
       id="path6102" />
    <path
       inkscape:export-ydpi="51"
       inkscape:export-xdpi="51"
       inkscape:export-filename="/home/laura/except/LauBenech4.png"
       transform="matrix(0.1060659,-0.3990354,-0.3284428,-0.1288627,-387.01867,899.05976)"
       d="M 1070.5466,471.6145 C 1073.329,474.95341 1067.4186,477.01245 1064.9971,476.23907 C 1058.4352,474.14325 1058.1384,465.46715 1061.2975,460.51554 C 1066.9484,451.65827 1079.5274,451.70401 1087.1951,457.74081 C 1098.4477,466.60006 1098.0278,483.53374 1089.0449,493.81243"
       sodipodi:t0="0"
       sodipodi:argument="-17.973497"
       sodipodi:radius="28.895212"
       sodipodi:revolution="1"
       sodipodi:expansion="1"
       sodipodi:cy="471.6145"
       sodipodi:cx="1070.5466"
       id="path6104"
       style="fill:#000000;fill-opacity:0;fill-rule:evenodd;stroke:#ffffff;stroke-width:3.00794125;stroke-linecap:butt;stroke-linejoin:miter;stroke-miterlimit:4;stroke-dasharray:none;stroke-opacity:1;overflow:visible"
       sodipodi:type="spiral" />
    <path
       inkscape:export-ydpi="51"
       inkscape:export-xdpi="51"
       inkscape:export-filename="/home/laura/except/LauBenech4.png"
       id="path6106"
       d="M -408.97379,349.39209 C -408.97379,349.39209 -408.23298,342.14504 -403.78812,337.50691 C -399.34326,332.8688 -391.93516,327.65093 -391.93516,327.65093 L -397.49124,335.47774 L -388.97192,328.81045 C -388.97192,328.81045 -391.93516,333.44856 -394.8984,336.34739 C -397.86164,339.24621 -401.19529,337.7968 -403.41772,342.14504 C -405.64015,346.49326 -408.23298,354.0302 -408.23298,354.0302 L -408.97379,349.39209 z"
       style="fill:#090c06;fill-opacity:1;fill-rule:evenodd;stroke:none;stroke-width:1px;stroke-linecap:butt;stroke-linejoin:miter;stroke-opacity:1;overflow:visible" />
    <path
       inkscape:export-ydpi="51"
       inkscape:export-xdpi="51"
       inkscape:export-filename="/home/laura/except/LauBenech4.png"
       sodipodi:nodetypes="cssssccsccccscc"
       id="path6108"
       d="M -414.51092,323.13565 C -414.51092,323.13565 -418.66862,318.63872 -421.44041,325.06291 C -424.21221,331.48712 -428.3699,343.69309 -426.29105,348.19005 C -425.53895,349.81699 -424.41358,354.49612 -425.11845,356.2612 C -426.36184,359.37484 -436.42359,362.34362 -439.56168,362.61174 C -445.57671,363.12568 -456.094,371.57368 -456.094,371.57368 L -454.13532,387.76182 C -454.13532,387.76182 -453.73398,391.59281 -451.70298,391.36545 C -450.73731,391.25734 -449.9323,390.02138 -448.78458,389.49426 C -444.52569,386.17386 -439.25487,384.26673 -434.39783,381.78927 C -425.01587,376.74349 -414.25989,364.47357 -414.25989,364.47357 C -397.79591,363.24333 -392.32103,368.7762 -381.29665,359.19535 C -380.03324,357.63079 -381.3732,356.49994 -382.80265,356.08664 C -388.10854,354.55252 -401.8386,357.3072 -407.52329,351.52465 C -406.19553,349.02251 -413.81797,323.13565 -414.51092,323.13565 z"
       style="fill:#a7f128;fill-opacity:1;fill-rule:evenodd;stroke:#0f0c08;stroke-width:3;stroke-linecap:butt;stroke-linejoin:miter;stroke-miterlimit:4;stroke-dasharray:none;stroke-opacity:1;overflow:visible" />
    <g
       inkscape:export-ydpi="51"
       inkscape:export-xdpi="51"
       inkscape:export-filename="/home/laura/except/LauBenech4.png"
       transform="matrix(1.0460285,0,0,1.0460285,-447.59945,-23.0735)"
       id="g6110"
       style="overflow:visible">
      <g
         id="g6112"
         transform="matrix(0.992865,0.1192435,-0.1192435,0.992865,36.112679,-6.5960248)">
        <path
           transform="matrix(0.967591,-0.2525227,0.2525227,0.967591,-62.156155,41.507225)"
           d="M 109.47975,282.80875 A 43.423817,22.067842 0 1 1 22.632114,282.80875 A 43.423817,22.067842 0 1 1 109.47975,282.80875 z"
           sodipodi:ry="22.067842"
           sodipodi:rx="43.423817"
           sodipodi:cy="282.80875"
           sodipodi:cx="66.055931"
           id="path6114"
           style="opacity:1;fill:#090c06;fill-opacity:1;stroke:none;stroke-width:8;stroke-miterlimit:4;stroke-dasharray:none;stroke-dashoffset:0;stroke-opacity:1"
           sodipodi:type="arc" />
        <text
           transform="matrix(0.9764259,-0.3758202,0.4267538,0.8598884,0,0)"
           sodipodi:linespacing="125%"
           id="text6116"
           y="325.69199"
           x="-94.121819"
           style="font-size:22.19476891px;font-style:italic;font-variant:normal;font-weight:bold;font-stretch:normal;text-align:start;line-height:125%;writing-mode:lr-tb;text-anchor:start;fill:#ffffff;fill-opacity:1;stroke:none;stroke-width:1px;stroke-linecap:butt;stroke-linejoin:miter;stroke-opacity:1;overflow:visible;font-family:DejaVu Sans;-inkscape-font-specification:DejaVu Sans Bold Italic"
           xml:space="preserve"><tspan
             y="325.69199"
             x="-94.121819"
             id="tspan6118"
             sodipodi:role="line">PyAr</tspan></text>
      </g>
      <path
         style="fill:#090c06;fill-opacity:1;fill-rule:evenodd;stroke:none;stroke-width:1px;stroke-linecap:butt;stroke-linejoin:miter;stroke-opacity:1"
         d="M 53.593842,316.79103 C 53.593842,316.79103 59.206092,314.13722 53.192967,321.10346 C 47.179843,328.06969 47.179843,328.06969 47.179843,328.06969 C 47.179843,328.06969 55.756495,326.59427 59.765246,322.61356 C 63.773995,318.63285 65.825072,316.16223 65.825072,316.16223 L 53.593842,316.79103 z"
         id="path6120"
         sodipodi:nodetypes="cscscc" />
    </g>
    <text
       xml:space="preserve"
       style="font-size:19.05992888999999835px;font-style:italic;font-variant:normal;font-weight:bold;font-stretch:normal;text-align:start;line-height:125%;writing-mode:lr-tb;text-anchor:start;fill:#090c06;fill-opacity:1;stroke:none;stroke-width:1px;stroke-linecap:butt;stroke-linejoin:miter;stroke-opacity:1;overflow:visible;font-family:Sans"
       x="-31.896236"
       y="304.45529"
       id="text6122"
       sodipodi:linespacing="125%"
       inkscape:export-filename="/home/laura/except/LauBenech4.png"
       inkscape:export-xdpi="51.947216"
       inkscape:export-ydpi="51.947216"><tspan
         sodipodi:role="line"
         id="tspan6124"
         x="-31.896236"
         y="304.45529"><tspan
   style="font-size:19.05992888999999835px;font-style:italic;font-variant:normal;font-weight:bold;font-stretch:normal;text-align:start;line-height:125%;writing-mode:lr-tb;text-anchor:start;fill:#090c06;fill-opacity:1;font-family:Sans"
   id="tspan6126">Python inside</tspan> ...</tspan></text>
    <g
       style="fill:#131312;fill-opacity:1;overflow:visible"
       id="g6128"
       transform="matrix(1.9074234,0,0,1.9074234,1303.5243,-3104.5325)"
       inkscape:export-filename="/home/laura/except/LauBenech4.png"
       inkscape:export-xdpi="51.947216"
       inkscape:export-ydpi="51.947216"><text
   xml:space="preserve"
   style="font-size:6.0059514px;font-style:normal;font-variant:normal;font-weight:normal;font-stretch:normal;text-align:start;line-height:125%;writing-mode:lr-tb;text-anchor:start;fill:#131312;fill-opacity:1;stroke:none;stroke-width:1px;stroke-linecap:butt;stroke-linejoin:miter;stroke-opacity:1;font-family:DejaVu Sans Mono"
   x="-690.11938"
   y="1805.7338"
   id="text6130"
   sodipodi:linespacing="125%"><tspan
     sodipodi:role="line"
     id="tspan6132"
     x="-690.11938"
     y="1805.7338"
     style="font-size:6.0059514px;font-style:normal;font-variant:normal;font-weight:normal;font-stretch:normal;text-align:start;line-height:125%;writing-mode:lr-tb;text-anchor:start;fill:#131312;fill-opacity:1;stroke:none;stroke-opacity:1;font-family:DejaVu Sans Mono">www.</tspan></text>




<text
   transform="scale(1.0862267,0.9206181)"
   xml:space="preserve"
   style="font-size:6.99741507px;font-style:normal;font-variant:normal;font-weight:normal;font-stretch:normal;text-align:start;line-height:125%;writing-mode:lr-tb;text-anchor:start;fill:#131312;fill-opacity:1;stroke:none;stroke-width:1px;stroke-linecap:butt;stroke-linejoin:miter;stroke-opacity:1;font-family:DejaVu Sans Mono"
   x="-622.27716"
   y="1961.4507"
   id="text6134"
   sodipodi:linespacing="125%"><tspan
     sodipodi:role="line"
     id="tspan6136"
     x="-622.27716"
     y="1961.4507"
     style="font-size:6.99741507px;font-style:normal;font-variant:normal;font-weight:normal;font-stretch:normal;text-align:start;line-height:125%;writing-mode:lr-tb;text-anchor:start;fill:#131312;fill-opacity:1;stroke:none;stroke-opacity:1;font-family:DejaVu Sans Mono">Python</tspan></text>




<text
   xml:space="preserve"
   style="font-size:6.0059514px;font-style:normal;font-variant:normal;font-weight:normal;font-stretch:normal;text-align:start;line-height:125%;writing-mode:lr-tb;text-anchor:start;fill:#131312;fill-opacity:1;stroke:none;stroke-width:1px;stroke-linecap:butt;stroke-linejoin:miter;stroke-opacity:1;font-family:DejaVu Sans Mono"
   x="-649.18097"
   y="1805.7308"
   id="text6138"
   sodipodi:linespacing="125%"><tspan
     sodipodi:role="line"
     id="tspan6140"
     x="-649.18097"
     y="1805.7308"
     style="font-size:6.0059514px;font-style:normal;font-variant:normal;font-weight:normal;font-stretch:normal;text-align:start;line-height:125%;writing-mode:lr-tb;text-anchor:start;fill:#131312;fill-opacity:1;stroke:none;stroke-opacity:1;font-family:DejaVu Sans Mono">.com.ar</tspan></text>




</g>
    <g
       inkscape:export-ydpi="51"
       inkscape:export-xdpi="51"
       inkscape:export-filename="/home/laura/except/LauBenech4.png"
       transform="matrix(1.0460285,0,0,1.0460285,-435.54433,-16.66716)"
       id="g6142"
       style="overflow:visible">
      <path
         sodipodi:type="arc"
         style="opacity:1;fill:#090c06;fill-opacity:1;stroke:none;stroke-width:1.5;stroke-miterlimit:4;stroke-dasharray:none;stroke-dashoffset:0;stroke-opacity:1"
         id="path6144"
         sodipodi:cx="13.156907"
         sodipodi:cy="345.86209"
         sodipodi:rx="1.8022184"
         sodipodi:ry="3.2439933"
         d="M 14.959126,345.86209 A 1.8022184,3.2439933 0 1 1 11.354689,345.86209 A 1.8022184,3.2439933 0 1 1 14.959126,345.86209 z" />
      <path
         sodipodi:type="arc"
         style="opacity:1;fill:#ffffff;fill-opacity:1;stroke:none;stroke-width:1.5;stroke-miterlimit:4;stroke-dasharray:none;stroke-dashoffset:0;stroke-opacity:1"
         id="path6146"
         sodipodi:cx="16.4009"
         sodipodi:cy="355.41385"
         sodipodi:rx="1.8022184"
         sodipodi:ry="0.54066557"
         d="M 18.203118,355.41385 A 1.8022184,0.54066557 0 1 1 14.598681,355.41385 A 1.8022184,0.54066557 0 1 1 18.203118,355.41385 z"
         transform="translate(-3.218724,-9.4300604)" />
    </g>
    <text
       inkscape:export-ydpi="51"
       inkscape:export-xdpi="51"
       inkscape:export-filename="/home/laura/except/LauBenech4.png"
       transform="matrix(0.9655217,-0.2603226,0.2603226,0.9655217,0,0)"
       id="text6148"
       a:adobe-opacity-share="0"
       style="font-size:4.25167418px;fill:#ffffff;fill-opacity:1;overflow:visible"
       x="-433.14963"
       y="195.40347">
      <tspan
         x="-433.14963"
         y="195.40347"
         font-size="3"
         id="tspan6150"
         style="font-size:3.04801512px;fill:#ffffff;fill-opacity:1;font-family:Arial-Black">Python Argentina</tspan>
      <tspan
         x="-415.24252"
         y="195.40347"
         font-size="3"
         id="tspan6152"
         style="font-size:3.04801512px;fill:#ffffff;fill-opacity:1;font-family:Arial-Black" />
      <tspan
         x="-413.48584"
         y="195.40347"
         font-size="3"
         id="tspan6154"
         style="font-size:3.04801512px;fill:#ffffff;fill-opacity:1;font-family:Arial-Black" />
      <tspan
         x="-400.80817"
         y="195.40347"
         font-size="3"
         id="tspan6156"
         style="font-size:3.04801512px;fill:#ffffff;fill-opacity:1;font-family:Arial-Black" />
    </text>
  </g>
</svg>
