<svg xmlns:a="http://ns.adobe.com/AdobeSVGViewerExtensions/3.0/" xmlns:dc="http://purl.org/dc/elements/1.1/" xmlns:cc="http://web.resource.org/cc/" xmlns:rdf="http://www.w3.org/1999/02/22-rdf-syntax-ns#" xmlns:svg="http://www.w3.org/2000/svg" xmlns="http://www.w3.org/2000/svg" xmlns:sodipodi="http://sodipodi.sourceforge.net/DTD/sodipodi-0.dtd" xmlns:inkscape="http://www.inkscape.org/namespaces/inkscape" id="svg14795" sodipodi:version="0.32" inkscape:version="0.45" sodipodi:modified="true" version="1.0" viewport="0 0 400px 186px">
  <defs id="defs14797"/>
  <sodipodi:namedview id="base" pagecolor="#ffffff" bordercolor="#666666" borderopacity="1.0" gridtolerance="10000" guidetolerance="10" objecttolerance="10" inkscape:pageopacity="0.0" inkscape:pageshadow="2" inkscape:zoom="0.35" inkscape:cx="375" inkscape:cy="520" inkscape:document-units="px" inkscape:current-layer="layer1" inkscape:window-width="822" inkscape:window-height="587" inkscape:window-x="0" inkscape:window-y="411"/>
  <metadata id="metadata14800">
    <rdf:RDF>
      <cc:Work rdf:about="">
        <dc:format>image/svg+xml</dc:format>
        <dc:type rdf:resource="http://purl.org/dc/dcmitype/StillImage"/>
      </cc:Work>
    </rdf:RDF>
  </metadata>
  <g inkscape:label="Layer 1" inkscape:groupmode="layer" id="layer1" transform="translate(-77.885868,-180.86455)">
    <text transform="matrix(1.0460285,0,0,1.0460285,295.02866,0)" id="text2564" y="581.85931" x="-43.664188" style="font-size:24.2461319px;font-style:normal;font-weight:normal;fill:#000000;fill-opacity:1;stroke:none;stroke-width:1px;stroke-linecap:butt;stroke-linejoin:miter;stroke-opacity:1;overflow:visible;font-family:Bitstream Vera Sans" xml:space="preserve"><tspan y="581.85931" x="-43.664188" id="tspan2566" sodipodi:role="line">Adelante</tspan></text>
    <text transform="matrix(1.0460285,0,0,1.0460285,295.02866,0)" id="text2568" y="581.85931" x="436.82724" style="font-size:24.2461319px;font-style:normal;font-weight:normal;fill:#000000;fill-opacity:1;stroke:none;stroke-width:1px;stroke-linecap:butt;stroke-linejoin:miter;stroke-opacity:1;overflow:visible;font-family:Bitstream Vera Sans" xml:space="preserve"><tspan y="581.85931" x="436.82724" id="tspan2570" sodipodi:role="line">Atr&#225;s</tspan></text>
    <g style="overflow:visible" id="g3430" transform="matrix(1.0460285,0,0,1.0460285,280.73607,-0.9868798)">
      <polygon points="0.788,530.608 0.788,582.951 45.717,582.951 45.717,710.563 169.602,710.563 169.602,582.951 214.53,582.951 214.53,530.608 0.788,530.608 " id="polygon2550" style="fill:none;fill-opacity:1;stroke:#000000;stroke-width:1.57620001;stroke-linecap:round;stroke-linejoin:round;overflow:visible" transform="matrix(2.020511,0,0,2.020511,250.5973,-896.40719)"/>
      <path style="fill:#a7f128;fill-opacity:1;fill-rule:evenodd;stroke:none;stroke-width:1.0682857px;stroke-linecap:butt;stroke-linejoin:miter;stroke-opacity:1" d="M 341.65737,389.02384 C 341.65737,389.02384 353.10433,386.53293 371.79124,382.98137 C 385.55343,380.36578 390.03404,361.1362 409.96934,357.94137 C 423.53488,355.76736 440.04077,368.45129 460.90502,368.80539 C 512.33502,369.67824 568.33207,368.34144 574.78518,368.34144 C 583.8562,368.34144 594.11538,367.39247 594.11538,367.39247 L 594.11538,339.13668 C 594.11538,339.13668 552.06771,328.16358 520.34943,327.82452 C 500.00911,327.60708 492.58363,340.87077 470.35375,338.5412 C 433.0525,334.63224 399.76455,318.59585 388.66172,323.07036 C 360.62404,334.36973 340.83273,349.43557 340.83273,349.43557 L 341.65737,389.02384 z " id="path3422" sodipodi:nodetypes="cssssccssscc"/>
      <path id="path3424" d="M 340.62208,393.41581 C 340.62208,393.41581 339.31277,384.58455 386.35157,389.73183 C 394.88015,390.66507 405.51954,399.23441 418.82287,401.82661 C 440.51101,406.05261 467.83831,396.93248 493.04976,401.63719 C 537.66726,409.96326 550.30926,406.88728 555.05783,406.88728 C 564.1355,406.88728 595.12525,408.1713 595.12525,408.1713 L 595.12525,440.24896 C 595.12525,440.24896 557.95602,441.45222 536.48555,438.11147 C 519.34607,435.44461 507.23254,429.65145 485.15949,427.61972 C 440.02085,423.4649 404.78571,423.25605 391.43469,419.58219 C 363.37646,411.86127 341.68375,427.98343 341.68375,427.98343 L 340.62208,393.41581 z " style="fill:#a7f128;fill-opacity:1;fill-rule:evenodd;stroke:none;stroke-width:0.88339233px;stroke-linecap:butt;stroke-linejoin:miter;stroke-opacity:1" sodipodi:nodetypes="cssssccssscc"/>
      <path style="fill:#a7f128;fill-opacity:1;fill-rule:evenodd;stroke:none;stroke-width:0.80929464px;stroke-linecap:butt;stroke-linejoin:miter;stroke-opacity:1" d="M 341.41013,430.53763 C 341.41013,430.53763 355.68609,424.95403 371.45814,428.35493 C 386.07937,431.50769 394.71888,436.9714 417.35437,439.049 C 431.70395,440.36608 445.28428,435.49237 466.66773,437.2616 C 487.74719,439.00567 506.51009,447.68375 526.88099,450.54656 C 533.52127,451.21707 591.79449,437.22276 595.09575,443.29595 L 595.01768,466.68828 C 595.01768,466.68828 485.76497,470.17567 425.00717,466.70774 C 407.50481,465.70874 394.73961,457.89879 388.46273,456.45001 C 360.39626,449.97191 341.5281,449.82554 341.5281,449.82554 L 341.41013,430.53763 z " id="path3426" sodipodi:nodetypes="cssscccsscc"/>
      <path sodipodi:nodetypes="ccsccssscc" id="path3428" d="M 422.84408,492.7166 C 422.84408,492.7166 432.79461,484.21594 468.16678,483.0301 C 480.31916,480.18845 508.085,474.265 538.64143,472.1428 C 559.49803,470.69427 585.53308,474.87418 595.32349,470.52645 L 595.01768,491.16121 C 595.01768,491.16121 578.81697,494.41022 562.54234,492.44078 C 550.56397,490.99124 540.50761,483.91183 526.82653,484.93602 C 498.17202,487.08117 478.12657,501.57524 467.96188,500.54285 C 428.26734,496.51122 395.02547,510.05609 395.02547,510.05609 L 422.84408,492.7166 z " style="fill:#a7f128;fill-opacity:1;fill-rule:evenodd;stroke:none;stroke-width:0.80929464px;stroke-linecap:butt;stroke-linejoin:miter;stroke-opacity:1"/>
    </g>
    <g transform="matrix(1.0460285,0,0,1.0460285,295.02866,0)" style="overflow:visible" id="g13776">
      <path d="M 79.387594,174.49831 C 70.180104,187.77301 42.567814,197.41491 9.9365441,197.41491 C -22.686626,197.41491 -50.300936,187.77501 -59.502376,174.49831 L -205.99547,174.49831 L -205.99547,280.25991 L -115.21794,280.25991 L -115.21794,538.10141 L 135.09107,538.10141 L 135.09107,280.25991 L 225.86859,280.25991 L 225.86859,174.49831 L 79.387594,174.49831 z " id="path2552" style="fill:none;fill-opacity:1;stroke:#000000;stroke-width:3.18473005;stroke-linecap:round;stroke-linejoin:round;overflow:visible"/>
      <text transform="matrix(0.9340671,-0.3570977,0.3570977,0.9340671,0,0)" id="text2554" a:adobe-opacity-share="0" style="font-size:8.45522976px;fill:#000000;fill-opacity:1;overflow:visible" x="-53.586449" y="316.25717">
        <tspan x="-53.586449" y="316.25717" font-size="3" id="tspan2556" style="font-size:6.06153393px;fill:#000000;fill-opacity:1;font-family:Arial-Black">Python Argentina</tspan>
        <tspan x="-17.974915" y="316.25717" font-size="3" id="tspan2558" style="font-size:6.06153393px;fill:#000000;fill-opacity:1;font-family:Arial-Black"/>
        <tspan x="-14.481448" y="316.25717" font-size="3" id="tspan2560" style="font-size:6.06153393px;fill:#000000;fill-opacity:1;font-family:Arial-Black"/>
        <tspan x="10.730469" y="316.25717" font-size="3" id="tspan2562" style="font-size:6.06153393px;fill:#000000;fill-opacity:1;font-family:Arial-Black"/>
      </text>
      <text transform="matrix(0.9764259,-0.3758202,0.4267538,0.8598884,0,0)" sodipodi:linespacing="125%" id="text2572" y="317.25116" x="-134.13026" style="font-size:36.38752747px;font-style:italic;font-variant:normal;font-weight:bold;font-stretch:normal;text-align:start;line-height:125%;writing-mode:lr-tb;text-anchor:start;fill:#000000;fill-opacity:1;stroke:none;stroke-width:1px;stroke-linecap:butt;stroke-linejoin:miter;stroke-opacity:1;overflow:visible;font-family:DejaVu Sans" xml:space="preserve"><tspan y="317.25116" x="-134.13026" id="tspan2574" sodipodi:role="line">PyAr</tspan></text>
      <path sodipodi:nodetypes="csssssccsszscc" id="path3416" d="M 137.9112,382.8787 C 137.9112,382.8787 126.05324,382.41199 119.91122,386.50728 C 105.90828,395.84397 82.649033,401.99982 49.835341,409.66992 C 31.785592,413.88899 4.881559,404.18727 -20.244933,407.50863 C -35.852932,409.57179 -47.149168,417.16695 -60.84625,417.49842 C -82.768154,418.02892 -100.84777,411.83548 -104.31079,411.83548 C -113.42082,411.83548 -117.30303,413.63683 -117.30303,413.63683 L -116.77511,437.88426 C -116.77511,437.88426 -110.62144,442.60142 -102.90533,442.80778 C -77.617816,443.48406 -20.185141,451.42355 26.965547,446.34265 C 54.766589,443.34685 79.324461,433.95972 88.086923,428.80911 C 108.90211,416.57385 127.97719,425.54811 135.22599,419.47263 C 137.7832,417.32935 136.71242,411.06785 136.71242,411.06785 L 137.9112,382.8787 z " style="fill:#a7f128;fill-opacity:1;fill-rule:evenodd;stroke:none;stroke-width:1.0682857px;stroke-linecap:butt;stroke-linejoin:miter;stroke-opacity:1"/>
      <path sodipodi:nodetypes="csssccscc" style="fill:#a7f128;fill-opacity:1;fill-rule:evenodd;stroke:none;stroke-width:0.88339233px;stroke-linecap:butt;stroke-linejoin:miter;stroke-opacity:1" d="M 136.83744,428.51175 C 136.83744,428.51175 98.274065,441.34289 51.235273,446.49017 C 22.833197,449.5981 -22.497073,459.71559 -57.182592,456.39958 C -64.273711,455.72166 -98.457397,452.85143 -102.05396,452.85143 C -111.13162,452.85143 -117.12354,453.6405 -117.12354,453.6405 L -116.85161,473.90424 C -116.85161,473.90424 60.294035,470.34244 88.352262,462.62153 C 116.41049,454.90061 137.03208,447.86923 137.03208,447.86923 L 136.83744,428.51175 z " id="path3418"/>
      <path sodipodi:nodetypes="csszcssscc" id="path3420" d="M 136.68796,456.71014 C 136.68796,456.71014 99.107183,467.39162 52.054588,471.71035 C 5.0019935,476.02908 -73.583651,481.95827 -81.664308,477.81635 C -84.567988,476.32801 -116.59335,475.88289 -116.79757,476.56892 C -116.99472,477.23119 -116.84905,493.99106 -116.84905,493.99106 C -116.84905,493.99106 -106.85199,498.16415 -96.937403,498.03464 C -74.765223,497.74501 -33.408917,492.15942 4.5743429,488.97974 C 42.022877,485.84483 66.387952,489.21116 87.550405,482.50718 C 115.00989,473.80838 136.73047,471.28539 136.73047,471.28539 L 136.68796,456.71014 z " style="fill:#a7f128;fill-opacity:1;fill-rule:evenodd;stroke:none;stroke-width:0.80929464px;stroke-linecap:butt;stroke-linejoin:miter;stroke-opacity:1"/>
      <path sodipodi:nodetypes="ccccccccccccccc" id="path12800" d="M -116.89411,342.38784 C -106.01083,337.39433 -111.59859,336.72466 -106.0008,327.83904 C -99.573668,321.61377 -92.431158,314.37441 -83.417978,312.53541 C -73.999528,311.73387 -61.896808,315.33119 -55.697503,305.80143 C -49.235363,296.95208 -38.087733,294.22611 -29.946313,287.21451 C -27.668423,282.15335 -16.942093,270.94837 -14.455703,280.67135 C -20.891373,285.39064 -12.452773,294.42938 -20.814293,298.57287 C -25.998083,305.44476 -41.642133,314.43856 -32.434373,323.03394 C -23.453433,324.37735 -17.232073,334.2586 -8.5435726,335.13608 C -0.0035426465,336.50135 -7.0028226,342.13115 -13.991533,341.32826 C -23.502623,336.87743 -32.941073,331.68095 -43.620273,330.65769 C -53.155183,329.13208 -61.494638,334.38026 -69.994408,337.70891 C -76.895538,341.97125 -84.616338,345.30313 -89.855638,351.83619 C -97.360628,360.33294 -109.62649,374.35524 -116.91553,383.00695 C -117.01998,372.56418 -116.9027,353.08824 -116.89411,342.38784 z " style="fill:#a7f128;fill-opacity:1;fill-rule:evenodd;stroke:none;stroke-width:1px;stroke-linecap:butt;stroke-linejoin:miter;stroke-opacity:1"/>
      <path id="path13774" d="M 137.14717,341.70851 C 137.14717,341.70851 129.75115,343.61567 123.20139,345.47939 C 108.68226,349.61077 83.293566,366.14665 50.877885,369.69378 C 22.475809,372.80171 -23.188022,386.58837 -57.873541,383.27236 C -64.96466,382.59444 -99.148346,379.72421 -102.74491,379.72421 C -111.82257,379.72421 -116.93293,386.12426 -116.93293,386.12426 L -116.87544,408.7944 C -116.87544,408.7944 -77.173392,404.17045 -32.472134,401.27958 C -17.366003,400.30266 -1.6889597,402.47834 13.219732,401.12327 C 47.426478,398.01418 77.366821,392.99421 87.661313,390.16143 C 115.71954,382.44051 137.34181,376.74338 137.34181,376.74338 L 137.14717,341.70851 z " style="fill:#a7f128;fill-opacity:1;fill-rule:evenodd;stroke:none;stroke-width:0.88339233px;stroke-linecap:butt;stroke-linejoin:miter;stroke-opacity:1" sodipodi:nodetypes="cssssccssscc"/>
    </g>
    <text transform="matrix(1.0460285,0,0,1.0460285,295.02866,0)" xml:space="preserve" style="font-size:12px;font-style:normal;font-variant:normal;font-weight:normal;font-stretch:normal;text-align:start;line-height:125%;writing-mode:lr-tb;text-anchor:start;fill:#000000;fill-opacity:1;stroke:none;stroke-width:1px;stroke-linecap:butt;stroke-linejoin:miter;stroke-opacity:1;overflow:visible;font-family:Sans" x="450.51898" y="355.07111" id="text13791" sodipodi:linespacing="125%"><tspan sodipodi:role="line" id="tspan13793" x="450.51898" y="355.07111">eaten by python ...</tspan></text>
    <text transform="matrix(1.0460285,0,0,1.0460285,295.02866,0)" xml:space="preserve" style="font-size:12px;font-style:normal;font-variant:normal;font-weight:normal;font-stretch:normal;text-align:start;line-height:125%;writing-mode:lr-tb;text-anchor:start;fill:#000000;fill-opacity:1;stroke:none;stroke-width:1px;stroke-linecap:butt;stroke-linejoin:miter;stroke-opacity:1;overflow:visible;font-family:Sans" x="415.37747" y="387.5094" id="text13795" sodipodi:linespacing="125%"><tspan sodipodi:role="line" id="tspan13797" x="415.37747" y="387.5094">www.python.com.ar</tspan></text>
  </g>
</svg>